solid Object_01
  facet normal 0.104503 -0.994277 0.022213
    outer loop
      vertex 0.000000 -1.000000 0.000000
      vertex 0.207912 -0.978148 0.000000
      vertex 0.189937 -0.978148 0.084565
    endloop
  endfacet
  facet normal 0.086433 -0.994277 0.062797
    outer loop
      vertex 0.000000 -1.000000 0.000000
      vertex 0.189937 -0.978148 0.084565
      vertex 0.139120 -0.978148 0.154508
    endloop
  endfacet
  facet normal 0.053419 -0.994277 0.092524
    outer loop
      vertex 0.000000 -1.000000 0.000000
      vertex 0.139120 -0.978148 0.154508
      vertex 0.064248 -0.978148 0.197736
    endloop
  endfacet
  facet normal 0.011168 -0.994277 0.106252
    outer loop
      vertex 0.000000 -1.000000 0.000000
      vertex 0.064248 -0.978148 0.197736
      vertex -0.021733 -0.978148 0.206773
    endloop
  endfacet
  facet normal -0.033015 -0.994277 0.101608
    outer loop
      vertex -0.000000 -1.000000 0.000000
      vertex -0.021733 -0.978148 0.206773
      vertex -0.103956 -0.978148 0.180057
    endloop
  endfacet
  facet normal -0.071488 -0.994277 0.079396
    outer loop
      vertex -0.000000 -1.000000 0.000000
      vertex -0.103956 -0.978148 0.180057
      vertex -0.168204 -0.978148 0.122207
    endloop
  endfacet
  facet normal -0.097601 -0.994277 0.043455
    outer loop
      vertex -0.000000 -1.000000 0.000000
      vertex -0.168204 -0.978148 0.122207
      vertex -0.203368 -0.978148 0.043227
    endloop
  endfacet
  facet normal -0.106837 -0.994277 0.000000
    outer loop
      vertex -0.000000 -1.000000 0.000000
      vertex -0.203368 -0.978148 0.043227
      vertex -0.203368 -0.978148 -0.043227
    endloop
  endfacet
  facet normal -0.097601 -0.994277 -0.043455
    outer loop
      vertex -0.000000 -1.000000 -0.000000
      vertex -0.203368 -0.978148 -0.043227
      vertex -0.168204 -0.978148 -0.122207
    endloop
  endfacet
  facet normal -0.071488 -0.994277 -0.079396
    outer loop
      vertex -0.000000 -1.000000 -0.000000
      vertex -0.168204 -0.978148 -0.122207
      vertex -0.103956 -0.978148 -0.180057
    endloop
  endfacet
  facet normal -0.033015 -0.994277 -0.101608
    outer loop
      vertex -0.000000 -1.000000 -0.000000
      vertex -0.103956 -0.978148 -0.180057
      vertex -0.021733 -0.978148 -0.206773
    endloop
  endfacet
  facet normal 0.011168 -0.994277 -0.106252
    outer loop
      vertex -0.000000 -1.000000 -0.000000
      vertex -0.021733 -0.978148 -0.206773
      vertex 0.064248 -0.978148 -0.197736
    endloop
  endfacet
  facet normal 0.053419 -0.994277 -0.092524
    outer loop
      vertex 0.000000 -1.000000 -0.000000
      vertex 0.064248 -0.978148 -0.197736
      vertex 0.139120 -0.978148 -0.154508
    endloop
  endfacet
  facet normal 0.086433 -0.994277 -0.062797
    outer loop
      vertex 0.000000 -1.000000 -0.000000
      vertex 0.139120 -0.978148 -0.154508
      vertex 0.189937 -0.978148 -0.084565
    endloop
  endfacet
  facet normal 0.104503 -0.994277 -0.022213
    outer loop
      vertex 0.000000 -1.000000 -0.000000
      vertex 0.189937 -0.978148 -0.084565
      vertex 0.207912 -0.978148 -0.000000
    endloop
  endfacet
  facet normal 0.308353 -0.949012 0.065542
    outer loop
      vertex 0.207912 -0.978148 0.000000
      vertex 0.371572 -0.913545 0.165435
      vertex 0.189937 -0.978148 0.084565
    endloop
  endfacet
  facet normal 0.308353 -0.949012 0.065542
    outer loop
      vertex 0.207912 -0.978148 0.000000
      vertex 0.406737 -0.913545 0.000000
      vertex 0.371572 -0.913545 0.165435
    endloop
  endfacet
  facet normal 0.255036 -0.949012 0.185294
    outer loop
      vertex 0.189937 -0.978148 0.084565
      vertex 0.272160 -0.913545 0.302264
      vertex 0.139120 -0.978148 0.154508
    endloop
  endfacet
  facet normal 0.255036 -0.949012 0.185294
    outer loop
      vertex 0.189937 -0.978148 0.084565
      vertex 0.371572 -0.913545 0.165435
      vertex 0.272160 -0.913545 0.302264
    endloop
  endfacet
  facet normal 0.157621 -0.949012 0.273007
    outer loop
      vertex 0.139120 -0.978148 0.154508
      vertex 0.125689 -0.913545 0.386830
      vertex 0.064248 -0.978148 0.197736
    endloop
  endfacet
  facet normal 0.157621 -0.949012 0.273007
    outer loop
      vertex 0.139120 -0.978148 0.154508
      vertex 0.272160 -0.913545 0.302264
      vertex 0.125689 -0.913545 0.386830
    endloop
  endfacet
  facet normal 0.032952 -0.949012 0.313514
    outer loop
      vertex 0.064248 -0.978148 0.197736
      vertex -0.042516 -0.913545 0.404508
      vertex -0.021733 -0.978148 0.206773
    endloop
  endfacet
  facet normal 0.032952 -0.949012 0.313514
    outer loop
      vertex 0.064248 -0.978148 0.197736
      vertex 0.125689 -0.913545 0.386830
      vertex -0.042516 -0.913545 0.404508
    endloop
  endfacet
  facet normal -0.097415 -0.949012 0.299812
    outer loop
      vertex -0.021733 -0.978148 0.206773
      vertex -0.203368 -0.913545 0.352244
      vertex -0.103956 -0.978148 0.180057
    endloop
  endfacet
  facet normal -0.097415 -0.949012 0.299812
    outer loop
      vertex -0.021733 -0.978148 0.206773
      vertex -0.042516 -0.913545 0.404508
      vertex -0.203368 -0.913545 0.352244
    endloop
  endfacet
  facet normal -0.210938 -0.949012 0.234270
    outer loop
      vertex -0.103956 -0.978148 0.180057
      vertex -0.329057 -0.913545 0.239074
      vertex -0.168204 -0.978148 0.122207
    endloop
  endfacet
  facet normal -0.210938 -0.949012 0.234270
    outer loop
      vertex -0.103956 -0.978148 0.180057
      vertex -0.203368 -0.913545 0.352244
      vertex -0.329057 -0.913545 0.239074
    endloop
  endfacet
  facet normal -0.287987 -0.949012 0.128220
    outer loop
      vertex -0.168204 -0.978148 0.122207
      vertex -0.397848 -0.913545 0.084565
      vertex -0.203368 -0.978148 0.043227
    endloop
  endfacet
  facet normal -0.287987 -0.949012 0.128220
    outer loop
      vertex -0.168204 -0.978148 0.122207
      vertex -0.329057 -0.913545 0.239074
      vertex -0.397848 -0.913545 0.084565
    endloop
  endfacet
  facet normal -0.315241 -0.949012 -0.000000
    outer loop
      vertex -0.203368 -0.978148 0.043227
      vertex -0.397848 -0.913545 -0.084565
      vertex -0.203368 -0.978148 -0.043227
    endloop
  endfacet
  facet normal -0.315241 -0.949012 0.000000
    outer loop
      vertex -0.203368 -0.978148 0.043227
      vertex -0.397848 -0.913545 0.084565
      vertex -0.397848 -0.913545 -0.084565
    endloop
  endfacet
  facet normal -0.287987 -0.949012 -0.128220
    outer loop
      vertex -0.203368 -0.978148 -0.043227
      vertex -0.329057 -0.913545 -0.239074
      vertex -0.168204 -0.978148 -0.122207
    endloop
  endfacet
  facet normal -0.287987 -0.949012 -0.128220
    outer loop
      vertex -0.203368 -0.978148 -0.043227
      vertex -0.397848 -0.913545 -0.084565
      vertex -0.329057 -0.913545 -0.239074
    endloop
  endfacet
  facet normal -0.210938 -0.949012 -0.234270
    outer loop
      vertex -0.168204 -0.978148 -0.122207
      vertex -0.203368 -0.913545 -0.352244
      vertex -0.103956 -0.978148 -0.180057
    endloop
  endfacet
  facet normal -0.210938 -0.949012 -0.234270
    outer loop
      vertex -0.168204 -0.978148 -0.122207
      vertex -0.329057 -0.913545 -0.239074
      vertex -0.203368 -0.913545 -0.352244
    endloop
  endfacet
  facet normal -0.097415 -0.949012 -0.299812
    outer loop
      vertex -0.103956 -0.978148 -0.180057
      vertex -0.042516 -0.913545 -0.404508
      vertex -0.021733 -0.978148 -0.206773
    endloop
  endfacet
  facet normal -0.097415 -0.949012 -0.299812
    outer loop
      vertex -0.103956 -0.978148 -0.180057
      vertex -0.203368 -0.913545 -0.352244
      vertex -0.042516 -0.913545 -0.404508
    endloop
  endfacet
  facet normal 0.032952 -0.949012 -0.313514
    outer loop
      vertex -0.021733 -0.978148 -0.206773
      vertex 0.125689 -0.913545 -0.386830
      vertex 0.064248 -0.978148 -0.197736
    endloop
  endfacet
  facet normal 0.032952 -0.949012 -0.313514
    outer loop
      vertex -0.021733 -0.978148 -0.206773
      vertex -0.042516 -0.913545 -0.404508
      vertex 0.125689 -0.913545 -0.386830
    endloop
  endfacet
  facet normal 0.157621 -0.949012 -0.273007
    outer loop
      vertex 0.064248 -0.978148 -0.197736
      vertex 0.272160 -0.913545 -0.302264
      vertex 0.139120 -0.978148 -0.154508
    endloop
  endfacet
  facet normal 0.157621 -0.949012 -0.273007
    outer loop
      vertex 0.064248 -0.978148 -0.197736
      vertex 0.125689 -0.913545 -0.386830
      vertex 0.272160 -0.913545 -0.302264
    endloop
  endfacet
  facet normal 0.255036 -0.949012 -0.185294
    outer loop
      vertex 0.139120 -0.978148 -0.154508
      vertex 0.371572 -0.913545 -0.165435
      vertex 0.189937 -0.978148 -0.084565
    endloop
  endfacet
  facet normal 0.255036 -0.949012 -0.185294
    outer loop
      vertex 0.139120 -0.978148 -0.154508
      vertex 0.272160 -0.913545 -0.302264
      vertex 0.371572 -0.913545 -0.165435
    endloop
  endfacet
  facet normal 0.308353 -0.949012 -0.065542
    outer loop
      vertex 0.189937 -0.978148 -0.084565
      vertex 0.406737 -0.913545 -0.000000
      vertex 0.207912 -0.978148 -0.000000
    endloop
  endfacet
  facet normal 0.308353 -0.949012 -0.065542
    outer loop
      vertex 0.189937 -0.978148 -0.084565
      vertex 0.371572 -0.913545 -0.165435
      vertex 0.406737 -0.913545 -0.000000
    endloop
  endfacet
  facet normal 0.497200 -0.861176 0.105683
    outer loop
      vertex 0.406737 -0.913545 0.000000
      vertex 0.536969 -0.809017 0.239074
      vertex 0.371572 -0.913545 0.165435
    endloop
  endfacet
  facet normal 0.497200 -0.861176 0.105683
    outer loop
      vertex 0.406737 -0.913545 0.000000
      vertex 0.587785 -0.809017 0.000000
      vertex 0.536969 -0.809017 0.239074
    endloop
  endfacet
  facet normal 0.411230 -0.861176 0.298776
    outer loop
      vertex 0.371572 -0.913545 0.165435
      vertex 0.393305 -0.809017 0.436810
      vertex 0.272160 -0.913545 0.302264
    endloop
  endfacet
  facet normal 0.411230 -0.861176 0.298776
    outer loop
      vertex 0.371572 -0.913545 0.165435
      vertex 0.536969 -0.809017 0.239074
      vertex 0.393305 -0.809017 0.436810
    endloop
  endfacet
  facet normal 0.254154 -0.861176 0.440207
    outer loop
      vertex 0.272160 -0.913545 0.302264
      vertex 0.181636 -0.809017 0.559017
      vertex 0.125689 -0.913545 0.386830
    endloop
  endfacet
  facet normal 0.254154 -0.861176 0.440207
    outer loop
      vertex 0.272160 -0.913545 0.302264
      vertex 0.393305 -0.809017 0.436810
      vertex 0.181636 -0.809017 0.559017
    endloop
  endfacet
  facet normal 0.053133 -0.861176 0.505523
    outer loop
      vertex 0.125689 -0.913545 0.386830
      vertex -0.061440 -0.809017 0.584565
      vertex -0.042516 -0.913545 0.404508
    endloop
  endfacet
  facet normal 0.053133 -0.861176 0.505523
    outer loop
      vertex 0.125689 -0.913545 0.386830
      vertex 0.181636 -0.809017 0.559017
      vertex -0.061440 -0.809017 0.584565
    endloop
  endfacet
  facet normal -0.157076 -0.861176 0.483429
    outer loop
      vertex -0.042516 -0.913545 0.404508
      vertex -0.293893 -0.809017 0.509037
      vertex -0.203368 -0.913545 0.352244
    endloop
  endfacet
  facet normal -0.157076 -0.861176 0.483429
    outer loop
      vertex -0.042516 -0.913545 0.404508
      vertex -0.061440 -0.809017 0.584565
      vertex -0.293893 -0.809017 0.509037
    endloop
  endfacet
  facet normal -0.340124 -0.861176 0.377746
    outer loop
      vertex -0.203368 -0.913545 0.352244
      vertex -0.475528 -0.809017 0.345492
      vertex -0.329057 -0.913545 0.239074
    endloop
  endfacet
  facet normal -0.340124 -0.861176 0.377746
    outer loop
      vertex -0.203368 -0.913545 0.352244
      vertex -0.293893 -0.809017 0.509037
      vertex -0.475528 -0.809017 0.345492
    endloop
  endfacet
  facet normal -0.464362 -0.861176 0.206747
    outer loop
      vertex -0.329057 -0.913545 0.239074
      vertex -0.574941 -0.809017 0.122207
      vertex -0.397848 -0.913545 0.084565
    endloop
  endfacet
  facet normal -0.464362 -0.861176 0.206747
    outer loop
      vertex -0.329057 -0.913545 0.239074
      vertex -0.475528 -0.809017 0.345492
      vertex -0.574941 -0.809017 0.122207
    endloop
  endfacet
  facet normal -0.508308 -0.861176 -0.000000
    outer loop
      vertex -0.397848 -0.913545 0.084565
      vertex -0.574941 -0.809017 -0.122207
      vertex -0.397848 -0.913545 -0.084565
    endloop
  endfacet
  facet normal -0.508308 -0.861176 0.000000
    outer loop
      vertex -0.397848 -0.913545 0.084565
      vertex -0.574941 -0.809017 0.122207
      vertex -0.574941 -0.809017 -0.122207
    endloop
  endfacet
  facet normal -0.464362 -0.861176 -0.206747
    outer loop
      vertex -0.397848 -0.913545 -0.084565
      vertex -0.475528 -0.809017 -0.345492
      vertex -0.329057 -0.913545 -0.239074
    endloop
  endfacet
  facet normal -0.464362 -0.861176 -0.206747
    outer loop
      vertex -0.397848 -0.913545 -0.084565
      vertex -0.574941 -0.809017 -0.122207
      vertex -0.475528 -0.809017 -0.345492
    endloop
  endfacet
  facet normal -0.340124 -0.861176 -0.377746
    outer loop
      vertex -0.329057 -0.913545 -0.239074
      vertex -0.293893 -0.809017 -0.509037
      vertex -0.203368 -0.913545 -0.352244
    endloop
  endfacet
  facet normal -0.340124 -0.861176 -0.377746
    outer loop
      vertex -0.329057 -0.913545 -0.239074
      vertex -0.475528 -0.809017 -0.345492
      vertex -0.293893 -0.809017 -0.509037
    endloop
  endfacet
  facet normal -0.157076 -0.861176 -0.483429
    outer loop
      vertex -0.203368 -0.913545 -0.352244
      vertex -0.061440 -0.809017 -0.584565
      vertex -0.042516 -0.913545 -0.404508
    endloop
  endfacet
  facet normal -0.157076 -0.861176 -0.483429
    outer loop
      vertex -0.203368 -0.913545 -0.352244
      vertex -0.293893 -0.809017 -0.509037
      vertex -0.061440 -0.809017 -0.584565
    endloop
  endfacet
  facet normal 0.053133 -0.861176 -0.505523
    outer loop
      vertex -0.042516 -0.913545 -0.404508
      vertex 0.181636 -0.809017 -0.559017
      vertex 0.125689 -0.913545 -0.386830
    endloop
  endfacet
  facet normal 0.053133 -0.861176 -0.505523
    outer loop
      vertex -0.042516 -0.913545 -0.404508
      vertex -0.061440 -0.809017 -0.584565
      vertex 0.181636 -0.809017 -0.559017
    endloop
  endfacet
  facet normal 0.254154 -0.861176 -0.440207
    outer loop
      vertex 0.125689 -0.913545 -0.386830
      vertex 0.393305 -0.809017 -0.436810
      vertex 0.272160 -0.913545 -0.302264
    endloop
  endfacet
  facet normal 0.254154 -0.861176 -0.440207
    outer loop
      vertex 0.125689 -0.913545 -0.386830
      vertex 0.181636 -0.809017 -0.559017
      vertex 0.393305 -0.809017 -0.436810
    endloop
  endfacet
  facet normal 0.411230 -0.861176 -0.298776
    outer loop
      vertex 0.272160 -0.913545 -0.302264
      vertex 0.536969 -0.809017 -0.239074
      vertex 0.371572 -0.913545 -0.165435
    endloop
  endfacet
  facet normal 0.411230 -0.861176 -0.298776
    outer loop
      vertex 0.272160 -0.913545 -0.302264
      vertex 0.393305 -0.809017 -0.436810
      vertex 0.536969 -0.809017 -0.239074
    endloop
  endfacet
  facet normal 0.497200 -0.861176 -0.105683
    outer loop
      vertex 0.371572 -0.913545 -0.165435
      vertex 0.587785 -0.809017 -0.000000
      vertex 0.406737 -0.913545 -0.000000
    endloop
  endfacet
  facet normal 0.497200 -0.861176 -0.105683
    outer loop
      vertex 0.371572 -0.913545 -0.165435
      vertex 0.536969 -0.809017 -0.239074
      vertex 0.587785 -0.809017 -0.000000
    endloop
  endfacet
  facet normal 0.662464 -0.735740 0.140811
    outer loop
      vertex 0.587785 -0.809017 0.000000
      vertex 0.678897 -0.669131 0.302264
      vertex 0.536969 -0.809017 0.239074
    endloop
  endfacet
  facet normal 0.662464 -0.735740 0.140811
    outer loop
      vertex 0.587785 -0.809017 0.000000
      vertex 0.743145 -0.669131 0.000000
      vertex 0.678897 -0.669131 0.302264
    endloop
  endfacet
  facet normal 0.547918 -0.735740 0.398086
    outer loop
      vertex 0.536969 -0.809017 0.239074
      vertex 0.497261 -0.669131 0.552264
      vertex 0.393305 -0.809017 0.436810
    endloop
  endfacet
  facet normal 0.547918 -0.735740 0.398086
    outer loop
      vertex 0.536969 -0.809017 0.239074
      vertex 0.678897 -0.669131 0.302264
      vertex 0.497261 -0.669131 0.552264
    endloop
  endfacet
  facet normal 0.338632 -0.735740 0.586527
    outer loop
      vertex 0.393305 -0.809017 0.436810
      vertex 0.229644 -0.669131 0.706773
      vertex 0.181636 -0.809017 0.559017
    endloop
  endfacet
  facet normal 0.338632 -0.735740 0.586527
    outer loop
      vertex 0.393305 -0.809017 0.436810
      vertex 0.497261 -0.669131 0.552264
      vertex 0.229644 -0.669131 0.706773
    endloop
  endfacet
  facet normal 0.070793 -0.735740 0.673553
    outer loop
      vertex 0.181636 -0.809017 0.559017
      vertex -0.077680 -0.669131 0.739074
      vertex -0.061440 -0.809017 0.584565
    endloop
  endfacet
  facet normal 0.070793 -0.735740 0.673553
    outer loop
      vertex 0.181636 -0.809017 0.559017
      vertex 0.229644 -0.669131 0.706773
      vertex -0.077680 -0.669131 0.739074
    endloop
  endfacet
  facet normal -0.209286 -0.735740 0.644116
    outer loop
      vertex -0.061440 -0.809017 0.584565
      vertex -0.371572 -0.669131 0.643582
      vertex -0.293893 -0.809017 0.509037
    endloop
  endfacet
  facet normal -0.209286 -0.735740 0.644116
    outer loop
      vertex -0.061440 -0.809017 0.584565
      vertex -0.077680 -0.669131 0.739074
      vertex -0.371572 -0.669131 0.643582
    endloop
  endfacet
  facet normal -0.453178 -0.735740 0.503305
    outer loop
      vertex -0.293893 -0.809017 0.509037
      vertex -0.601217 -0.669131 0.436810
      vertex -0.475528 -0.809017 0.345492
    endloop
  endfacet
  facet normal -0.453178 -0.735740 0.503305
    outer loop
      vertex -0.293893 -0.809017 0.509037
      vertex -0.371572 -0.669131 0.643582
      vertex -0.601217 -0.669131 0.436810
    endloop
  endfacet
  facet normal -0.618711 -0.735740 0.275468
    outer loop
      vertex -0.475528 -0.809017 0.345492
      vertex -0.726905 -0.669131 0.154508
      vertex -0.574941 -0.809017 0.122207
    endloop
  endfacet
  facet normal -0.618711 -0.735740 0.275468
    outer loop
      vertex -0.475528 -0.809017 0.345492
      vertex -0.601217 -0.669131 0.436810
      vertex -0.726905 -0.669131 0.154508
    endloop
  endfacet
  facet normal -0.677264 -0.735740 -0.000000
    outer loop
      vertex -0.574941 -0.809017 0.122207
      vertex -0.726905 -0.669131 -0.154508
      vertex -0.574941 -0.809017 -0.122207
    endloop
  endfacet
  facet normal -0.677264 -0.735740 0.000000
    outer loop
      vertex -0.574941 -0.809017 0.122207
      vertex -0.726905 -0.669131 0.154508
      vertex -0.726905 -0.669131 -0.154508
    endloop
  endfacet
  facet normal -0.618711 -0.735740 -0.275468
    outer loop
      vertex -0.574941 -0.809017 -0.122207
      vertex -0.601217 -0.669131 -0.436810
      vertex -0.475528 -0.809017 -0.345492
    endloop
  endfacet
  facet normal -0.618711 -0.735740 -0.275468
    outer loop
      vertex -0.574941 -0.809017 -0.122207
      vertex -0.726905 -0.669131 -0.154508
      vertex -0.601217 -0.669131 -0.436810
    endloop
  endfacet
  facet normal -0.453178 -0.735740 -0.503305
    outer loop
      vertex -0.475528 -0.809017 -0.345492
      vertex -0.371572 -0.669131 -0.643582
      vertex -0.293893 -0.809017 -0.509037
    endloop
  endfacet
  facet normal -0.453178 -0.735740 -0.503305
    outer loop
      vertex -0.475528 -0.809017 -0.345492
      vertex -0.601217 -0.669131 -0.436810
      vertex -0.371572 -0.669131 -0.643582
    endloop
  endfacet
  facet normal -0.209286 -0.735740 -0.644116
    outer loop
      vertex -0.293893 -0.809017 -0.509037
      vertex -0.077680 -0.669131 -0.739074
      vertex -0.061440 -0.809017 -0.584565
    endloop
  endfacet
  facet normal -0.209286 -0.735740 -0.644116
    outer loop
      vertex -0.293893 -0.809017 -0.509037
      vertex -0.371572 -0.669131 -0.643582
      vertex -0.077680 -0.669131 -0.739074
    endloop
  endfacet
  facet normal 0.070793 -0.735740 -0.673553
    outer loop
      vertex -0.061440 -0.809017 -0.584565
      vertex 0.229644 -0.669131 -0.706773
      vertex 0.181636 -0.809017 -0.559017
    endloop
  endfacet
  facet normal 0.070793 -0.735740 -0.673553
    outer loop
      vertex -0.061440 -0.809017 -0.584565
      vertex -0.077680 -0.669131 -0.739074
      vertex 0.229644 -0.669131 -0.706773
    endloop
  endfacet
  facet normal 0.338632 -0.735740 -0.586527
    outer loop
      vertex 0.181636 -0.809017 -0.559017
      vertex 0.497261 -0.669131 -0.552264
      vertex 0.393305 -0.809017 -0.436810
    endloop
  endfacet
  facet normal 0.338632 -0.735740 -0.586527
    outer loop
      vertex 0.181636 -0.809017 -0.559017
      vertex 0.229644 -0.669131 -0.706773
      vertex 0.497261 -0.669131 -0.552264
    endloop
  endfacet
  facet normal 0.547918 -0.735740 -0.398086
    outer loop
      vertex 0.393305 -0.809017 -0.436810
      vertex 0.678897 -0.669131 -0.302264
      vertex 0.536969 -0.809017 -0.239074
    endloop
  endfacet
  facet normal 0.547918 -0.735740 -0.398086
    outer loop
      vertex 0.393305 -0.809017 -0.436810
      vertex 0.497261 -0.669131 -0.552264
      vertex 0.678897 -0.669131 -0.302264
    endloop
  endfacet
  facet normal 0.662464 -0.735740 -0.140811
    outer loop
      vertex 0.536969 -0.809017 -0.239074
      vertex 0.743145 -0.669131 -0.000000
      vertex 0.587785 -0.809017 -0.000000
    endloop
  endfacet
  facet normal 0.662464 -0.735740 -0.140811
    outer loop
      vertex 0.536969 -0.809017 -0.239074
      vertex 0.678897 -0.669131 -0.302264
      vertex 0.743145 -0.669131 -0.000000
    endloop
  endfacet
  facet normal 0.797314 -0.579283 0.169474
    outer loop
      vertex 0.743145 -0.669131 0.000000
      vertex 0.791154 -0.500000 0.352244
      vertex 0.678897 -0.669131 0.302264
    endloop
  endfacet
  facet normal 0.797314 -0.579283 0.169474
    outer loop
      vertex 0.743145 -0.669131 0.000000
      vertex 0.866025 -0.500000 0.000000
      vertex 0.791154 -0.500000 0.352244
    endloop
  endfacet
  facet normal 0.659451 -0.579283 0.479119
    outer loop
      vertex 0.678897 -0.669131 0.302264
      vertex 0.579484 -0.500000 0.643582
      vertex 0.497261 -0.669131 0.552264
    endloop
  endfacet
  facet normal 0.659451 -0.579283 0.479119
    outer loop
      vertex 0.678897 -0.669131 0.302264
      vertex 0.791154 -0.500000 0.352244
      vertex 0.579484 -0.500000 0.643582
    endloop
  endfacet
  facet normal 0.407563 -0.579283 0.705920
    outer loop
      vertex 0.497261 -0.669131 0.552264
      vertex 0.267617 -0.500000 0.823639
      vertex 0.229644 -0.669131 0.706773
    endloop
  endfacet
  facet normal 0.407563 -0.579283 0.705920
    outer loop
      vertex 0.497261 -0.669131 0.552264
      vertex 0.579484 -0.500000 0.643582
      vertex 0.267617 -0.500000 0.823639
    endloop
  endfacet
  facet normal 0.085204 -0.579283 0.810661
    outer loop
      vertex 0.229644 -0.669131 0.706773
      vertex -0.090524 -0.500000 0.861281
      vertex -0.077680 -0.669131 0.739074
    endloop
  endfacet
  facet normal 0.085204 -0.579283 0.810661
    outer loop
      vertex 0.229644 -0.669131 0.706773
      vertex 0.267617 -0.500000 0.823639
      vertex -0.090524 -0.500000 0.861281
    endloop
  endfacet
  facet normal -0.251888 -0.579283 0.775232
    outer loop
      vertex -0.077680 -0.669131 0.739074
      vertex -0.433013 -0.500000 0.750000
      vertex -0.371572 -0.669131 0.643582
    endloop
  endfacet
  facet normal -0.251888 -0.579283 0.775232
    outer loop
      vertex -0.077680 -0.669131 0.739074
      vertex -0.090524 -0.500000 0.861281
      vertex -0.433013 -0.500000 0.750000
    endloop
  endfacet
  facet normal -0.545426 -0.579283 0.605757
    outer loop
      vertex -0.371572 -0.669131 0.643582
      vertex -0.700629 -0.500000 0.509037
      vertex -0.601217 -0.669131 0.436810
    endloop
  endfacet
  facet normal -0.545426 -0.579283 0.605757
    outer loop
      vertex -0.371572 -0.669131 0.643582
      vertex -0.433013 -0.500000 0.750000
      vertex -0.700629 -0.500000 0.509037
    endloop
  endfacet
  facet normal -0.744655 -0.579283 0.331542
    outer loop
      vertex -0.601217 -0.669131 0.436810
      vertex -0.847101 -0.500000 0.180057
      vertex -0.726905 -0.669131 0.154508
    endloop
  endfacet
  facet normal -0.744655 -0.579283 0.331542
    outer loop
      vertex -0.601217 -0.669131 0.436810
      vertex -0.700629 -0.500000 0.509037
      vertex -0.847101 -0.500000 0.180057
    endloop
  endfacet
  facet normal -0.815127 -0.579283 -0.000000
    outer loop
      vertex -0.726905 -0.669131 0.154508
      vertex -0.847101 -0.500000 -0.180057
      vertex -0.726905 -0.669131 -0.154508
    endloop
  endfacet
  facet normal -0.815127 -0.579283 0.000000
    outer loop
      vertex -0.726905 -0.669131 0.154508
      vertex -0.847101 -0.500000 0.180057
      vertex -0.847101 -0.500000 -0.180057
    endloop
  endfacet
  facet normal -0.744655 -0.579283 -0.331542
    outer loop
      vertex -0.726905 -0.669131 -0.154508
      vertex -0.700629 -0.500000 -0.509037
      vertex -0.601217 -0.669131 -0.436810
    endloop
  endfacet
  facet normal -0.744655 -0.579283 -0.331542
    outer loop
      vertex -0.726905 -0.669131 -0.154508
      vertex -0.847101 -0.500000 -0.180057
      vertex -0.700629 -0.500000 -0.509037
    endloop
  endfacet
  facet normal -0.545426 -0.579283 -0.605757
    outer loop
      vertex -0.601217 -0.669131 -0.436810
      vertex -0.433013 -0.500000 -0.750000
      vertex -0.371572 -0.669131 -0.643582
    endloop
  endfacet
  facet normal -0.545426 -0.579283 -0.605757
    outer loop
      vertex -0.601217 -0.669131 -0.436810
      vertex -0.700629 -0.500000 -0.509037
      vertex -0.433013 -0.500000 -0.750000
    endloop
  endfacet
  facet normal -0.251888 -0.579283 -0.775232
    outer loop
      vertex -0.371572 -0.669131 -0.643582
      vertex -0.090524 -0.500000 -0.861281
      vertex -0.077680 -0.669131 -0.739074
    endloop
  endfacet
  facet normal -0.251888 -0.579283 -0.775232
    outer loop
      vertex -0.371572 -0.669131 -0.643582
      vertex -0.433013 -0.500000 -0.750000
      vertex -0.090524 -0.500000 -0.861281
    endloop
  endfacet
  facet normal 0.085204 -0.579283 -0.810661
    outer loop
      vertex -0.077680 -0.669131 -0.739074
      vertex 0.267617 -0.500000 -0.823639
      vertex 0.229644 -0.669131 -0.706773
    endloop
  endfacet
  facet normal 0.085204 -0.579283 -0.810661
    outer loop
      vertex -0.077680 -0.669131 -0.739074
      vertex -0.090524 -0.500000 -0.861281
      vertex 0.267617 -0.500000 -0.823639
    endloop
  endfacet
  facet normal 0.407563 -0.579283 -0.705920
    outer loop
      vertex 0.229644 -0.669131 -0.706773
      vertex 0.579484 -0.500000 -0.643582
      vertex 0.497261 -0.669131 -0.552264
    endloop
  endfacet
  facet normal 0.407563 -0.579283 -0.705920
    outer loop
      vertex 0.229644 -0.669131 -0.706773
      vertex 0.267617 -0.500000 -0.823639
      vertex 0.579484 -0.500000 -0.643582
    endloop
  endfacet
  facet normal 0.659451 -0.579283 -0.479119
    outer loop
      vertex 0.497261 -0.669131 -0.552264
      vertex 0.791154 -0.500000 -0.352244
      vertex 0.678897 -0.669131 -0.302264
    endloop
  endfacet
  facet normal 0.659451 -0.579283 -0.479119
    outer loop
      vertex 0.497261 -0.669131 -0.552264
      vertex 0.579484 -0.500000 -0.643582
      vertex 0.791154 -0.500000 -0.352244
    endloop
  endfacet
  facet normal 0.797314 -0.579283 -0.169474
    outer loop
      vertex 0.678897 -0.669131 -0.302264
      vertex 0.866025 -0.500000 -0.000000
      vertex 0.743145 -0.669131 -0.000000
    endloop
  endfacet
  facet normal 0.797314 -0.579283 -0.169474
    outer loop
      vertex 0.678897 -0.669131 -0.302264
      vertex 0.791154 -0.500000 -0.352244
      vertex 0.866025 -0.500000 -0.000000
    endloop
  endfacet
  facet normal 0.896795 -0.399279 0.190620
    outer loop
      vertex 0.866025 -0.500000 0.000000
      vertex 0.868833 -0.309017 0.386830
      vertex 0.791154 -0.500000 0.352244
    endloop
  endfacet
  facet normal 0.896795 -0.399279 0.190620
    outer loop
      vertex 0.866025 -0.500000 0.000000
      vertex 0.951057 -0.309017 0.000000
      vertex 0.868833 -0.309017 0.386830
    endloop
  endfacet
  facet normal 0.741731 -0.399279 0.538899
    outer loop
      vertex 0.791154 -0.500000 0.352244
      vertex 0.636381 -0.309017 0.706773
      vertex 0.579484 -0.500000 0.643582
    endloop
  endfacet
  facet normal 0.741731 -0.399279 0.538899
    outer loop
      vertex 0.791154 -0.500000 0.352244
      vertex 0.868833 -0.309017 0.386830
      vertex 0.636381 -0.309017 0.706773
    endloop
  endfacet
  facet normal 0.458415 -0.399279 0.793998
    outer loop
      vertex 0.579484 -0.500000 0.643582
      vertex 0.293893 -0.309017 0.904508
      vertex 0.267617 -0.500000 0.823639
    endloop
  endfacet
  facet normal 0.458415 -0.399279 0.793998
    outer loop
      vertex 0.579484 -0.500000 0.643582
      vertex 0.636381 -0.309017 0.706773
      vertex 0.293893 -0.309017 0.904508
    endloop
  endfacet
  facet normal 0.095835 -0.399279 0.911807
    outer loop
      vertex 0.267617 -0.500000 0.823639
      vertex -0.099412 -0.309017 0.945847
      vertex -0.090524 -0.500000 0.861281
    endloop
  endfacet
  facet normal 0.095835 -0.399279 0.911807
    outer loop
      vertex 0.267617 -0.500000 0.823639
      vertex 0.293893 -0.309017 0.904508
      vertex -0.099412 -0.309017 0.945847
    endloop
  endfacet
  facet normal -0.283316 -0.399279 0.871957
    outer loop
      vertex -0.090524 -0.500000 0.861281
      vertex -0.475528 -0.309017 0.823639
      vertex -0.433013 -0.500000 0.750000
    endloop
  endfacet
  facet normal -0.283316 -0.399279 0.871957
    outer loop
      vertex -0.090524 -0.500000 0.861281
      vertex -0.099412 -0.309017 0.945847
      vertex -0.475528 -0.309017 0.823639
    endloop
  endfacet
  facet normal -0.613479 -0.399279 0.681337
    outer loop
      vertex -0.433013 -0.500000 0.750000
      vertex -0.769421 -0.309017 0.559017
      vertex -0.700629 -0.500000 0.509037
    endloop
  endfacet
  facet normal -0.613479 -0.399279 0.681337
    outer loop
      vertex -0.433013 -0.500000 0.750000
      vertex -0.475528 -0.309017 0.823639
      vertex -0.769421 -0.309017 0.559017
    endloop
  endfacet
  facet normal -0.837566 -0.399279 0.372908
    outer loop
      vertex -0.700629 -0.500000 0.509037
      vertex -0.930274 -0.309017 0.197736
      vertex -0.847101 -0.500000 0.180057
    endloop
  endfacet
  facet normal -0.837566 -0.399279 0.372908
    outer loop
      vertex -0.700629 -0.500000 0.509037
      vertex -0.769421 -0.309017 0.559017
      vertex -0.930274 -0.309017 0.197736
    endloop
  endfacet
  facet normal -0.916830 -0.399279 -0.000000
    outer loop
      vertex -0.847101 -0.500000 0.180057
      vertex -0.930274 -0.309017 -0.197736
      vertex -0.847101 -0.500000 -0.180057
    endloop
  endfacet
  facet normal -0.916830 -0.399279 0.000000
    outer loop
      vertex -0.847101 -0.500000 0.180057
      vertex -0.930274 -0.309017 0.197736
      vertex -0.930274 -0.309017 -0.197736
    endloop
  endfacet
  facet normal -0.837566 -0.399279 -0.372908
    outer loop
      vertex -0.847101 -0.500000 -0.180057
      vertex -0.769421 -0.309017 -0.559017
      vertex -0.700629 -0.500000 -0.509037
    endloop
  endfacet
  facet normal -0.837566 -0.399279 -0.372908
    outer loop
      vertex -0.847101 -0.500000 -0.180057
      vertex -0.930274 -0.309017 -0.197736
      vertex -0.769421 -0.309017 -0.559017
    endloop
  endfacet
  facet normal -0.613479 -0.399279 -0.681337
    outer loop
      vertex -0.700629 -0.500000 -0.509037
      vertex -0.475528 -0.309017 -0.823639
      vertex -0.433013 -0.500000 -0.750000
    endloop
  endfacet
  facet normal -0.613479 -0.399279 -0.681337
    outer loop
      vertex -0.700629 -0.500000 -0.509037
      vertex -0.769421 -0.309017 -0.559017
      vertex -0.475528 -0.309017 -0.823639
    endloop
  endfacet
  facet normal -0.283316 -0.399279 -0.871957
    outer loop
      vertex -0.433013 -0.500000 -0.750000
      vertex -0.099412 -0.309017 -0.945847
      vertex -0.090524 -0.500000 -0.861281
    endloop
  endfacet
  facet normal -0.283316 -0.399279 -0.871957
    outer loop
      vertex -0.433013 -0.500000 -0.750000
      vertex -0.475528 -0.309017 -0.823639
      vertex -0.099412 -0.309017 -0.945847
    endloop
  endfacet
  facet normal 0.095835 -0.399279 -0.911807
    outer loop
      vertex -0.090524 -0.500000 -0.861281
      vertex 0.293893 -0.309017 -0.904508
      vertex 0.267617 -0.500000 -0.823639
    endloop
  endfacet
  facet normal 0.095835 -0.399279 -0.911807
    outer loop
      vertex -0.090524 -0.500000 -0.861281
      vertex -0.099412 -0.309017 -0.945847
      vertex 0.293893 -0.309017 -0.904508
    endloop
  endfacet
  facet normal 0.458415 -0.399279 -0.793998
    outer loop
      vertex 0.267617 -0.500000 -0.823639
      vertex 0.636381 -0.309017 -0.706773
      vertex 0.579484 -0.500000 -0.643582
    endloop
  endfacet
  facet normal 0.458415 -0.399279 -0.793998
    outer loop
      vertex 0.267617 -0.500000 -0.823639
      vertex 0.293893 -0.309017 -0.904508
      vertex 0.636381 -0.309017 -0.706773
    endloop
  endfacet
  facet normal 0.741731 -0.399279 -0.538899
    outer loop
      vertex 0.579484 -0.500000 -0.643582
      vertex 0.868833 -0.309017 -0.386830
      vertex 0.791154 -0.500000 -0.352244
    endloop
  endfacet
  facet normal 0.741731 -0.399279 -0.538899
    outer loop
      vertex 0.579484 -0.500000 -0.643582
      vertex 0.636381 -0.309017 -0.706773
      vertex 0.868833 -0.309017 -0.386830
    endloop
  endfacet
  facet normal 0.896795 -0.399279 -0.190620
    outer loop
      vertex 0.791154 -0.500000 -0.352244
      vertex 0.951057 -0.309017 -0.000000
      vertex 0.866025 -0.500000 -0.000000
    endloop
  endfacet
  facet normal 0.896795 -0.399279 -0.190620
    outer loop
      vertex 0.791154 -0.500000 -0.352244
      vertex 0.868833 -0.309017 -0.386830
      vertex 0.951057 -0.309017 -0.000000
    endloop
  endfacet
  facet normal 0.957668 -0.203559 0.203559
    outer loop
      vertex 0.951057 -0.309017 0.000000
      vertex 0.908541 -0.104528 0.404508
      vertex 0.868833 -0.309017 0.386830
    endloop
  endfacet
  facet normal 0.957668 -0.203559 0.203559
    outer loop
      vertex 0.951057 -0.309017 0.000000
      vertex 0.994522 -0.104528 0.000000
      vertex 0.908541 -0.104528 0.404508
    endloop
  endfacet
  facet normal 0.792078 -0.203559 0.575479
    outer loop
      vertex 0.868833 -0.309017 0.386830
      vertex 0.665465 -0.104528 0.739074
      vertex 0.636381 -0.309017 0.706773
    endloop
  endfacet
  facet normal 0.792078 -0.203559 0.575479
    outer loop
      vertex 0.868833 -0.309017 0.386830
      vertex 0.908541 -0.104528 0.404508
      vertex 0.665465 -0.104528 0.739074
    endloop
  endfacet
  facet normal 0.489531 -0.203559 0.847893
    outer loop
      vertex 0.636381 -0.309017 0.706773
      vertex 0.307324 -0.104528 0.945847
      vertex 0.293893 -0.309017 0.904508
    endloop
  endfacet
  facet normal 0.489531 -0.203559 0.847893
    outer loop
      vertex 0.636381 -0.309017 0.706773
      vertex 0.665465 -0.104528 0.739074
      vertex 0.307324 -0.104528 0.945847
    endloop
  endfacet
  facet normal 0.102340 -0.203559 0.973699
    outer loop
      vertex 0.293893 -0.309017 0.904508
      vertex -0.103956 -0.104528 0.989074
      vertex -0.099412 -0.309017 0.945847
    endloop
  endfacet
  facet normal 0.102340 -0.203559 0.973699
    outer loop
      vertex 0.293893 -0.309017 0.904508
      vertex 0.307324 -0.104528 0.945847
      vertex -0.103956 -0.104528 0.989074
    endloop
  endfacet
  facet normal -0.302547 -0.203559 0.931144
    outer loop
      vertex -0.099412 -0.309017 0.945847
      vertex -0.497261 -0.104528 0.861281
      vertex -0.475528 -0.309017 0.823639
    endloop
  endfacet
  facet normal -0.302547 -0.203559 0.931144
    outer loop
      vertex -0.099412 -0.309017 0.945847
      vertex -0.103956 -0.104528 0.989074
      vertex -0.497261 -0.104528 0.861281
    endloop
  endfacet
  facet normal -0.655121 -0.203559 0.727585
    outer loop
      vertex -0.475528 -0.309017 0.823639
      vertex -0.804585 -0.104528 0.584565
      vertex -0.769421 -0.309017 0.559017
    endloop
  endfacet
  facet normal -0.655121 -0.203559 0.727585
    outer loop
      vertex -0.475528 -0.309017 0.823639
      vertex -0.497261 -0.104528 0.861281
      vertex -0.804585 -0.104528 0.584565
    endloop
  endfacet
  facet normal -0.894418 -0.203559 0.398221
    outer loop
      vertex -0.769421 -0.309017 0.559017
      vertex -0.972789 -0.104528 0.206773
      vertex -0.930274 -0.309017 0.197736
    endloop
  endfacet
  facet normal -0.894418 -0.203559 0.398221
    outer loop
      vertex -0.769421 -0.309017 0.559017
      vertex -0.804585 -0.104528 0.584565
      vertex -0.972789 -0.104528 0.206773
    endloop
  endfacet
  facet normal -0.979063 -0.203559 -0.000000
    outer loop
      vertex -0.930274 -0.309017 0.197736
      vertex -0.972789 -0.104528 -0.206773
      vertex -0.930274 -0.309017 -0.197736
    endloop
  endfacet
  facet normal -0.979063 -0.203559 0.000000
    outer loop
      vertex -0.930274 -0.309017 0.197736
      vertex -0.972789 -0.104528 0.206773
      vertex -0.972789 -0.104528 -0.206773
    endloop
  endfacet
  facet normal -0.894418 -0.203559 -0.398221
    outer loop
      vertex -0.930274 -0.309017 -0.197736
      vertex -0.804585 -0.104528 -0.584565
      vertex -0.769421 -0.309017 -0.559017
    endloop
  endfacet
  facet normal -0.894418 -0.203559 -0.398221
    outer loop
      vertex -0.930274 -0.309017 -0.197736
      vertex -0.972789 -0.104528 -0.206773
      vertex -0.804585 -0.104528 -0.584565
    endloop
  endfacet
  facet normal -0.655121 -0.203559 -0.727585
    outer loop
      vertex -0.769421 -0.309017 -0.559017
      vertex -0.497261 -0.104528 -0.861281
      vertex -0.475528 -0.309017 -0.823639
    endloop
  endfacet
  facet normal -0.655121 -0.203559 -0.727585
    outer loop
      vertex -0.769421 -0.309017 -0.559017
      vertex -0.804585 -0.104528 -0.584565
      vertex -0.497261 -0.104528 -0.861281
    endloop
  endfacet
  facet normal -0.302547 -0.203559 -0.931144
    outer loop
      vertex -0.475528 -0.309017 -0.823639
      vertex -0.103956 -0.104528 -0.989074
      vertex -0.099412 -0.309017 -0.945847
    endloop
  endfacet
  facet normal -0.302547 -0.203559 -0.931144
    outer loop
      vertex -0.475528 -0.309017 -0.823639
      vertex -0.497261 -0.104528 -0.861281
      vertex -0.103956 -0.104528 -0.989074
    endloop
  endfacet
  facet normal 0.102340 -0.203559 -0.973699
    outer loop
      vertex -0.099412 -0.309017 -0.945847
      vertex 0.307324 -0.104528 -0.945847
      vertex 0.293893 -0.309017 -0.904508
    endloop
  endfacet
  facet normal 0.102340 -0.203559 -0.973699
    outer loop
      vertex -0.099412 -0.309017 -0.945847
      vertex -0.103956 -0.104528 -0.989074
      vertex 0.307324 -0.104528 -0.945847
    endloop
  endfacet
  facet normal 0.489531 -0.203559 -0.847893
    outer loop
      vertex 0.293893 -0.309017 -0.904508
      vertex 0.665465 -0.104528 -0.739074
      vertex 0.636381 -0.309017 -0.706773
    endloop
  endfacet
  facet normal 0.489531 -0.203559 -0.847893
    outer loop
      vertex 0.293893 -0.309017 -0.904508
      vertex 0.307324 -0.104528 -0.945847
      vertex 0.665465 -0.104528 -0.739074
    endloop
  endfacet
  facet normal 0.792078 -0.203559 -0.575479
    outer loop
      vertex 0.636381 -0.309017 -0.706773
      vertex 0.908541 -0.104528 -0.404508
      vertex 0.868833 -0.309017 -0.386830
    endloop
  endfacet
  facet normal 0.792078 -0.203559 -0.575479
    outer loop
      vertex 0.636381 -0.309017 -0.706773
      vertex 0.665465 -0.104528 -0.739074
      vertex 0.908541 -0.104528 -0.404508
    endloop
  endfacet
  facet normal 0.957668 -0.203559 -0.203559
    outer loop
      vertex 0.868833 -0.309017 -0.386830
      vertex 0.994522 -0.104528 -0.000000
      vertex 0.951057 -0.309017 -0.000000
    endloop
  endfacet
  facet normal 0.957668 -0.203559 -0.203559
    outer loop
      vertex 0.868833 -0.309017 -0.386830
      vertex 0.908541 -0.104528 -0.404508
      vertex 0.994522 -0.104528 -0.000000
    endloop
  endfacet
  facet normal 0.978148 -0.000000 0.207912
    outer loop
      vertex 0.994522 -0.104528 0.000000
      vertex 0.908541 0.104528 0.404508
      vertex 0.908541 -0.104528 0.404508
    endloop
  endfacet
  facet normal 0.978148 -0.000000 0.207912
    outer loop
      vertex 0.994522 -0.104528 0.000000
      vertex 0.994522 0.104528 0.000000
      vertex 0.908541 0.104528 0.404508
    endloop
  endfacet
  facet normal 0.809017 -0.000000 0.587785
    outer loop
      vertex 0.908541 -0.104528 0.404508
      vertex 0.665465 0.104528 0.739074
      vertex 0.665465 -0.104528 0.739074
    endloop
  endfacet
  facet normal 0.809017 -0.000000 0.587785
    outer loop
      vertex 0.908541 -0.104528 0.404508
      vertex 0.908541 0.104528 0.404508
      vertex 0.665465 0.104528 0.739074
    endloop
  endfacet
  facet normal 0.500000 -0.000000 0.866025
    outer loop
      vertex 0.665465 -0.104528 0.739074
      vertex 0.307324 0.104528 0.945847
      vertex 0.307324 -0.104528 0.945847
    endloop
  endfacet
  facet normal 0.500000 -0.000000 0.866025
    outer loop
      vertex 0.665465 -0.104528 0.739074
      vertex 0.665465 0.104528 0.739074
      vertex 0.307324 0.104528 0.945847
    endloop
  endfacet
  facet normal 0.104528 -0.000000 0.994522
    outer loop
      vertex 0.307324 -0.104528 0.945847
      vertex -0.103956 0.104528 0.989074
      vertex -0.103956 -0.104528 0.989074
    endloop
  endfacet
  facet normal 0.104528 -0.000000 0.994522
    outer loop
      vertex 0.307324 -0.104528 0.945847
      vertex 0.307324 0.104528 0.945847
      vertex -0.103956 0.104528 0.989074
    endloop
  endfacet
  facet normal -0.309017 -0.000000 0.951057
    outer loop
      vertex -0.103956 -0.104528 0.989074
      vertex -0.497261 0.104528 0.861281
      vertex -0.497261 -0.104528 0.861281
    endloop
  endfacet
  facet normal -0.309017 -0.000000 0.951057
    outer loop
      vertex -0.103956 -0.104528 0.989074
      vertex -0.103956 0.104528 0.989074
      vertex -0.497261 0.104528 0.861281
    endloop
  endfacet
  facet normal -0.669131 -0.000000 0.743145
    outer loop
      vertex -0.497261 -0.104528 0.861281
      vertex -0.804585 0.104528 0.584565
      vertex -0.804585 -0.104528 0.584565
    endloop
  endfacet
  facet normal -0.669131 -0.000000 0.743145
    outer loop
      vertex -0.497261 -0.104528 0.861281
      vertex -0.497261 0.104528 0.861281
      vertex -0.804585 0.104528 0.584565
    endloop
  endfacet
  facet normal -0.913545 -0.000000 0.406737
    outer loop
      vertex -0.804585 -0.104528 0.584565
      vertex -0.972789 0.104528 0.206773
      vertex -0.972789 -0.104528 0.206773
    endloop
  endfacet
  facet normal -0.913545 -0.000000 0.406737
    outer loop
      vertex -0.804585 -0.104528 0.584565
      vertex -0.804585 0.104528 0.584565
      vertex -0.972789 0.104528 0.206773
    endloop
  endfacet
  facet normal -1.000000 -0.000000 -0.000000
    outer loop
      vertex -0.972789 -0.104528 0.206773
      vertex -0.972789 0.104528 -0.206773
      vertex -0.972789 -0.104528 -0.206773
    endloop
  endfacet
  facet normal -1.000000 -0.000000 0.000000
    outer loop
      vertex -0.972789 -0.104528 0.206773
      vertex -0.972789 0.104528 0.206773
      vertex -0.972789 0.104528 -0.206773
    endloop
  endfacet
  facet normal -0.913545 -0.000000 -0.406737
    outer loop
      vertex -0.972789 -0.104528 -0.206773
      vertex -0.804585 0.104528 -0.584565
      vertex -0.804585 -0.104528 -0.584565
    endloop
  endfacet
  facet normal -0.913545 -0.000000 -0.406737
    outer loop
      vertex -0.972789 -0.104528 -0.206773
      vertex -0.972789 0.104528 -0.206773
      vertex -0.804585 0.104528 -0.584565
    endloop
  endfacet
  facet normal -0.669131 -0.000000 -0.743145
    outer loop
      vertex -0.804585 -0.104528 -0.584565
      vertex -0.497261 0.104528 -0.861281
      vertex -0.497261 -0.104528 -0.861281
    endloop
  endfacet
  facet normal -0.669131 -0.000000 -0.743145
    outer loop
      vertex -0.804585 -0.104528 -0.584565
      vertex -0.804585 0.104528 -0.584565
      vertex -0.497261 0.104528 -0.861281
    endloop
  endfacet
  facet normal -0.309017 -0.000000 -0.951057
    outer loop
      vertex -0.497261 -0.104528 -0.861281
      vertex -0.103956 0.104528 -0.989074
      vertex -0.103956 -0.104528 -0.989074
    endloop
  endfacet
  facet normal -0.309017 -0.000000 -0.951057
    outer loop
      vertex -0.497261 -0.104528 -0.861281
      vertex -0.497261 0.104528 -0.861281
      vertex -0.103956 0.104528 -0.989074
    endloop
  endfacet
  facet normal 0.104528 -0.000000 -0.994522
    outer loop
      vertex -0.103956 -0.104528 -0.989074
      vertex 0.307324 0.104528 -0.945847
      vertex 0.307324 -0.104528 -0.945847
    endloop
  endfacet
  facet normal 0.104528 -0.000000 -0.994522
    outer loop
      vertex -0.103956 -0.104528 -0.989074
      vertex -0.103956 0.104528 -0.989074
      vertex 0.307324 0.104528 -0.945847
    endloop
  endfacet
  facet normal 0.500000 -0.000000 -0.866025
    outer loop
      vertex 0.307324 -0.104528 -0.945847
      vertex 0.665465 0.104528 -0.739074
      vertex 0.665465 -0.104528 -0.739074
    endloop
  endfacet
  facet normal 0.500000 -0.000000 -0.866025
    outer loop
      vertex 0.307324 -0.104528 -0.945847
      vertex 0.307324 0.104528 -0.945847
      vertex 0.665465 0.104528 -0.739074
    endloop
  endfacet
  facet normal 0.809017 -0.000000 -0.587785
    outer loop
      vertex 0.665465 -0.104528 -0.739074
      vertex 0.908541 0.104528 -0.404508
      vertex 0.908541 -0.104528 -0.404508
    endloop
  endfacet
  facet normal 0.809017 -0.000000 -0.587785
    outer loop
      vertex 0.665465 -0.104528 -0.739074
      vertex 0.665465 0.104528 -0.739074
      vertex 0.908541 0.104528 -0.404508
    endloop
  endfacet
  facet normal 0.978148 -0.000000 -0.207912
    outer loop
      vertex 0.908541 -0.104528 -0.404508
      vertex 0.994522 0.104528 -0.000000
      vertex 0.994522 -0.104528 -0.000000
    endloop
  endfacet
  facet normal 0.978148 -0.000000 -0.207912
    outer loop
      vertex 0.908541 -0.104528 -0.404508
      vertex 0.908541 0.104528 -0.404508
      vertex 0.994522 0.104528 -0.000000
    endloop
  endfacet
  facet normal 0.957668 0.203559 0.203559
    outer loop
      vertex 0.994522 0.104528 0.000000
      vertex 0.868833 0.309017 0.386830
      vertex 0.908541 0.104528 0.404508
    endloop
  endfacet
  facet normal 0.957668 0.203559 0.203559
    outer loop
      vertex 0.994522 0.104528 0.000000
      vertex 0.951057 0.309017 0.000000
      vertex 0.868833 0.309017 0.386830
    endloop
  endfacet
  facet normal 0.792078 0.203559 0.575479
    outer loop
      vertex 0.908541 0.104528 0.404508
      vertex 0.636381 0.309017 0.706773
      vertex 0.665465 0.104528 0.739074
    endloop
  endfacet
  facet normal 0.792078 0.203559 0.575479
    outer loop
      vertex 0.908541 0.104528 0.404508
      vertex 0.868833 0.309017 0.386830
      vertex 0.636381 0.309017 0.706773
    endloop
  endfacet
  facet normal 0.489531 0.203559 0.847893
    outer loop
      vertex 0.665465 0.104528 0.739074
      vertex 0.293893 0.309017 0.904508
      vertex 0.307324 0.104528 0.945847
    endloop
  endfacet
  facet normal 0.489531 0.203559 0.847893
    outer loop
      vertex 0.665465 0.104528 0.739074
      vertex 0.636381 0.309017 0.706773
      vertex 0.293893 0.309017 0.904508
    endloop
  endfacet
  facet normal 0.102340 0.203559 0.973699
    outer loop
      vertex 0.307324 0.104528 0.945847
      vertex -0.099412 0.309017 0.945847
      vertex -0.103956 0.104528 0.989074
    endloop
  endfacet
  facet normal 0.102340 0.203559 0.973699
    outer loop
      vertex 0.307324 0.104528 0.945847
      vertex 0.293893 0.309017 0.904508
      vertex -0.099412 0.309017 0.945847
    endloop
  endfacet
  facet normal -0.302547 0.203559 0.931144
    outer loop
      vertex -0.103956 0.104528 0.989074
      vertex -0.475528 0.309017 0.823639
      vertex -0.497261 0.104528 0.861281
    endloop
  endfacet
  facet normal -0.302547 0.203559 0.931144
    outer loop
      vertex -0.103956 0.104528 0.989074
      vertex -0.099412 0.309017 0.945847
      vertex -0.475528 0.309017 0.823639
    endloop
  endfacet
  facet normal -0.655121 0.203559 0.727585
    outer loop
      vertex -0.497261 0.104528 0.861281
      vertex -0.769421 0.309017 0.559017
      vertex -0.804585 0.104528 0.584565
    endloop
  endfacet
  facet normal -0.655121 0.203559 0.727585
    outer loop
      vertex -0.497261 0.104528 0.861281
      vertex -0.475528 0.309017 0.823639
      vertex -0.769421 0.309017 0.559017
    endloop
  endfacet
  facet normal -0.894418 0.203559 0.398221
    outer loop
      vertex -0.804585 0.104528 0.584565
      vertex -0.930274 0.309017 0.197736
      vertex -0.972789 0.104528 0.206773
    endloop
  endfacet
  facet normal -0.894418 0.203559 0.398221
    outer loop
      vertex -0.804585 0.104528 0.584565
      vertex -0.769421 0.309017 0.559017
      vertex -0.930274 0.309017 0.197736
    endloop
  endfacet
  facet normal -0.979063 0.203559 0.000000
    outer loop
      vertex -0.972789 0.104528 0.206773
      vertex -0.930274 0.309017 -0.197736
      vertex -0.972789 0.104528 -0.206773
    endloop
  endfacet
  facet normal -0.979063 0.203559 0.000000
    outer loop
      vertex -0.972789 0.104528 0.206773
      vertex -0.930274 0.309017 0.197736
      vertex -0.930274 0.309017 -0.197736
    endloop
  endfacet
  facet normal -0.894418 0.203559 -0.398221
    outer loop
      vertex -0.972789 0.104528 -0.206773
      vertex -0.769421 0.309017 -0.559017
      vertex -0.804585 0.104528 -0.584565
    endloop
  endfacet
  facet normal -0.894418 0.203559 -0.398221
    outer loop
      vertex -0.972789 0.104528 -0.206773
      vertex -0.930274 0.309017 -0.197736
      vertex -0.769421 0.309017 -0.559017
    endloop
  endfacet
  facet normal -0.655121 0.203559 -0.727585
    outer loop
      vertex -0.804585 0.104528 -0.584565
      vertex -0.475528 0.309017 -0.823639
      vertex -0.497261 0.104528 -0.861281
    endloop
  endfacet
  facet normal -0.655121 0.203559 -0.727585
    outer loop
      vertex -0.804585 0.104528 -0.584565
      vertex -0.769421 0.309017 -0.559017
      vertex -0.475528 0.309017 -0.823639
    endloop
  endfacet
  facet normal -0.302547 0.203559 -0.931144
    outer loop
      vertex -0.497261 0.104528 -0.861281
      vertex -0.099412 0.309017 -0.945847
      vertex -0.103956 0.104528 -0.989074
    endloop
  endfacet
  facet normal -0.302547 0.203559 -0.931144
    outer loop
      vertex -0.497261 0.104528 -0.861281
      vertex -0.475528 0.309017 -0.823639
      vertex -0.099412 0.309017 -0.945847
    endloop
  endfacet
  facet normal 0.102340 0.203559 -0.973699
    outer loop
      vertex -0.103956 0.104528 -0.989074
      vertex 0.293893 0.309017 -0.904508
      vertex 0.307324 0.104528 -0.945847
    endloop
  endfacet
  facet normal 0.102340 0.203559 -0.973699
    outer loop
      vertex -0.103956 0.104528 -0.989074
      vertex -0.099412 0.309017 -0.945847
      vertex 0.293893 0.309017 -0.904508
    endloop
  endfacet
  facet normal 0.489531 0.203559 -0.847893
    outer loop
      vertex 0.307324 0.104528 -0.945847
      vertex 0.636381 0.309017 -0.706773
      vertex 0.665465 0.104528 -0.739074
    endloop
  endfacet
  facet normal 0.489531 0.203559 -0.847893
    outer loop
      vertex 0.307324 0.104528 -0.945847
      vertex 0.293893 0.309017 -0.904508
      vertex 0.636381 0.309017 -0.706773
    endloop
  endfacet
  facet normal 0.792078 0.203559 -0.575479
    outer loop
      vertex 0.665465 0.104528 -0.739074
      vertex 0.868833 0.309017 -0.386830
      vertex 0.908541 0.104528 -0.404508
    endloop
  endfacet
  facet normal 0.792078 0.203559 -0.575479
    outer loop
      vertex 0.665465 0.104528 -0.739074
      vertex 0.636381 0.309017 -0.706773
      vertex 0.868833 0.309017 -0.386830
    endloop
  endfacet
  facet normal 0.957668 0.203559 -0.203559
    outer loop
      vertex 0.908541 0.104528 -0.404508
      vertex 0.951057 0.309017 -0.000000
      vertex 0.994522 0.104528 -0.000000
    endloop
  endfacet
  facet normal 0.957668 0.203559 -0.203559
    outer loop
      vertex 0.908541 0.104528 -0.404508
      vertex 0.868833 0.309017 -0.386830
      vertex 0.951057 0.309017 -0.000000
    endloop
  endfacet
  facet normal 0.896795 0.399279 0.190620
    outer loop
      vertex 0.951057 0.309017 0.000000
      vertex 0.791154 0.500000 0.352244
      vertex 0.868833 0.309017 0.386830
    endloop
  endfacet
  facet normal 0.896795 0.399279 0.190620
    outer loop
      vertex 0.951057 0.309017 0.000000
      vertex 0.866025 0.500000 0.000000
      vertex 0.791154 0.500000 0.352244
    endloop
  endfacet
  facet normal 0.741731 0.399279 0.538899
    outer loop
      vertex 0.868833 0.309017 0.386830
      vertex 0.579484 0.500000 0.643582
      vertex 0.636381 0.309017 0.706773
    endloop
  endfacet
  facet normal 0.741731 0.399279 0.538899
    outer loop
      vertex 0.868833 0.309017 0.386830
      vertex 0.791154 0.500000 0.352244
      vertex 0.579484 0.500000 0.643582
    endloop
  endfacet
  facet normal 0.458415 0.399279 0.793998
    outer loop
      vertex 0.636381 0.309017 0.706773
      vertex 0.267617 0.500000 0.823639
      vertex 0.293893 0.309017 0.904508
    endloop
  endfacet
  facet normal 0.458415 0.399279 0.793998
    outer loop
      vertex 0.636381 0.309017 0.706773
      vertex 0.579484 0.500000 0.643582
      vertex 0.267617 0.500000 0.823639
    endloop
  endfacet
  facet normal 0.095835 0.399279 0.911807
    outer loop
      vertex 0.293893 0.309017 0.904508
      vertex -0.090524 0.500000 0.861281
      vertex -0.099412 0.309017 0.945847
    endloop
  endfacet
  facet normal 0.095835 0.399279 0.911807
    outer loop
      vertex 0.293893 0.309017 0.904508
      vertex 0.267617 0.500000 0.823639
      vertex -0.090524 0.500000 0.861281
    endloop
  endfacet
  facet normal -0.283316 0.399279 0.871957
    outer loop
      vertex -0.099412 0.309017 0.945847
      vertex -0.433013 0.500000 0.750000
      vertex -0.475528 0.309017 0.823639
    endloop
  endfacet
  facet normal -0.283316 0.399279 0.871957
    outer loop
      vertex -0.099412 0.309017 0.945847
      vertex -0.090524 0.500000 0.861281
      vertex -0.433013 0.500000 0.750000
    endloop
  endfacet
  facet normal -0.613479 0.399279 0.681337
    outer loop
      vertex -0.475528 0.309017 0.823639
      vertex -0.700629 0.500000 0.509037
      vertex -0.769421 0.309017 0.559017
    endloop
  endfacet
  facet normal -0.613479 0.399279 0.681337
    outer loop
      vertex -0.475528 0.309017 0.823639
      vertex -0.433013 0.500000 0.750000
      vertex -0.700629 0.500000 0.509037
    endloop
  endfacet
  facet normal -0.837566 0.399279 0.372908
    outer loop
      vertex -0.769421 0.309017 0.559017
      vertex -0.847101 0.500000 0.180057
      vertex -0.930274 0.309017 0.197736
    endloop
  endfacet
  facet normal -0.837566 0.399279 0.372908
    outer loop
      vertex -0.769421 0.309017 0.559017
      vertex -0.700629 0.500000 0.509037
      vertex -0.847101 0.500000 0.180057
    endloop
  endfacet
  facet normal -0.916830 0.399279 0.000000
    outer loop
      vertex -0.930274 0.309017 0.197736
      vertex -0.847101 0.500000 -0.180057
      vertex -0.930274 0.309017 -0.197736
    endloop
  endfacet
  facet normal -0.916830 0.399279 0.000000
    outer loop
      vertex -0.930274 0.309017 0.197736
      vertex -0.847101 0.500000 0.180057
      vertex -0.847101 0.500000 -0.180057
    endloop
  endfacet
  facet normal -0.837566 0.399279 -0.372908
    outer loop
      vertex -0.930274 0.309017 -0.197736
      vertex -0.700629 0.500000 -0.509037
      vertex -0.769421 0.309017 -0.559017
    endloop
  endfacet
  facet normal -0.837566 0.399279 -0.372908
    outer loop
      vertex -0.930274 0.309017 -0.197736
      vertex -0.847101 0.500000 -0.180057
      vertex -0.700629 0.500000 -0.509037
    endloop
  endfacet
  facet normal -0.613479 0.399279 -0.681337
    outer loop
      vertex -0.769421 0.309017 -0.559017
      vertex -0.433013 0.500000 -0.750000
      vertex -0.475528 0.309017 -0.823639
    endloop
  endfacet
  facet normal -0.613479 0.399279 -0.681337
    outer loop
      vertex -0.769421 0.309017 -0.559017
      vertex -0.700629 0.500000 -0.509037
      vertex -0.433013 0.500000 -0.750000
    endloop
  endfacet
  facet normal -0.283316 0.399279 -0.871957
    outer loop
      vertex -0.475528 0.309017 -0.823639
      vertex -0.090524 0.500000 -0.861281
      vertex -0.099412 0.309017 -0.945847
    endloop
  endfacet
  facet normal -0.283316 0.399279 -0.871957
    outer loop
      vertex -0.475528 0.309017 -0.823639
      vertex -0.433013 0.500000 -0.750000
      vertex -0.090524 0.500000 -0.861281
    endloop
  endfacet
  facet normal 0.095835 0.399279 -0.911807
    outer loop
      vertex -0.099412 0.309017 -0.945847
      vertex 0.267617 0.500000 -0.823639
      vertex 0.293893 0.309017 -0.904508
    endloop
  endfacet
  facet normal 0.095835 0.399279 -0.911807
    outer loop
      vertex -0.099412 0.309017 -0.945847
      vertex -0.090524 0.500000 -0.861281
      vertex 0.267617 0.500000 -0.823639
    endloop
  endfacet
  facet normal 0.458415 0.399279 -0.793998
    outer loop
      vertex 0.293893 0.309017 -0.904508
      vertex 0.579484 0.500000 -0.643582
      vertex 0.636381 0.309017 -0.706773
    endloop
  endfacet
  facet normal 0.458415 0.399279 -0.793998
    outer loop
      vertex 0.293893 0.309017 -0.904508
      vertex 0.267617 0.500000 -0.823639
      vertex 0.579484 0.500000 -0.643582
    endloop
  endfacet
  facet normal 0.741731 0.399279 -0.538899
    outer loop
      vertex 0.636381 0.309017 -0.706773
      vertex 0.791154 0.500000 -0.352244
      vertex 0.868833 0.309017 -0.386830
    endloop
  endfacet
  facet normal 0.741731 0.399279 -0.538899
    outer loop
      vertex 0.636381 0.309017 -0.706773
      vertex 0.579484 0.500000 -0.643582
      vertex 0.791154 0.500000 -0.352244
    endloop
  endfacet
  facet normal 0.896795 0.399279 -0.190620
    outer loop
      vertex 0.868833 0.309017 -0.386830
      vertex 0.866025 0.500000 -0.000000
      vertex 0.951057 0.309017 -0.000000
    endloop
  endfacet
  facet normal 0.896795 0.399279 -0.190620
    outer loop
      vertex 0.868833 0.309017 -0.386830
      vertex 0.791154 0.500000 -0.352244
      vertex 0.866025 0.500000 -0.000000
    endloop
  endfacet
  facet normal 0.797314 0.579283 0.169474
    outer loop
      vertex 0.866025 0.500000 0.000000
      vertex 0.678897 0.669131 0.302264
      vertex 0.791154 0.500000 0.352244
    endloop
  endfacet
  facet normal 0.797314 0.579283 0.169474
    outer loop
      vertex 0.866025 0.500000 0.000000
      vertex 0.743145 0.669131 0.000000
      vertex 0.678897 0.669131 0.302264
    endloop
  endfacet
  facet normal 0.659451 0.579283 0.479119
    outer loop
      vertex 0.791154 0.500000 0.352244
      vertex 0.497261 0.669131 0.552264
      vertex 0.579484 0.500000 0.643582
    endloop
  endfacet
  facet normal 0.659451 0.579283 0.479119
    outer loop
      vertex 0.791154 0.500000 0.352244
      vertex 0.678897 0.669131 0.302264
      vertex 0.497261 0.669131 0.552264
    endloop
  endfacet
  facet normal 0.407563 0.579283 0.705920
    outer loop
      vertex 0.579484 0.500000 0.643582
      vertex 0.229644 0.669131 0.706773
      vertex 0.267617 0.500000 0.823639
    endloop
  endfacet
  facet normal 0.407563 0.579283 0.705920
    outer loop
      vertex 0.579484 0.500000 0.643582
      vertex 0.497261 0.669131 0.552264
      vertex 0.229644 0.669131 0.706773
    endloop
  endfacet
  facet normal 0.085204 0.579283 0.810661
    outer loop
      vertex 0.267617 0.500000 0.823639
      vertex -0.077680 0.669131 0.739074
      vertex -0.090524 0.500000 0.861281
    endloop
  endfacet
  facet normal 0.085204 0.579283 0.810661
    outer loop
      vertex 0.267617 0.500000 0.823639
      vertex 0.229644 0.669131 0.706773
      vertex -0.077680 0.669131 0.739074
    endloop
  endfacet
  facet normal -0.251888 0.579283 0.775232
    outer loop
      vertex -0.090524 0.500000 0.861281
      vertex -0.371572 0.669131 0.643582
      vertex -0.433013 0.500000 0.750000
    endloop
  endfacet
  facet normal -0.251888 0.579283 0.775232
    outer loop
      vertex -0.090524 0.500000 0.861281
      vertex -0.077680 0.669131 0.739074
      vertex -0.371572 0.669131 0.643582
    endloop
  endfacet
  facet normal -0.545426 0.579283 0.605757
    outer loop
      vertex -0.433013 0.500000 0.750000
      vertex -0.601217 0.669131 0.436810
      vertex -0.700629 0.500000 0.509037
    endloop
  endfacet
  facet normal -0.545426 0.579283 0.605757
    outer loop
      vertex -0.433013 0.500000 0.750000
      vertex -0.371572 0.669131 0.643582
      vertex -0.601217 0.669131 0.436810
    endloop
  endfacet
  facet normal -0.744655 0.579283 0.331542
    outer loop
      vertex -0.700629 0.500000 0.509037
      vertex -0.726905 0.669131 0.154508
      vertex -0.847101 0.500000 0.180057
    endloop
  endfacet
  facet normal -0.744655 0.579283 0.331542
    outer loop
      vertex -0.700629 0.500000 0.509037
      vertex -0.601217 0.669131 0.436810
      vertex -0.726905 0.669131 0.154508
    endloop
  endfacet
  facet normal -0.815127 0.579283 0.000000
    outer loop
      vertex -0.847101 0.500000 0.180057
      vertex -0.726905 0.669131 -0.154508
      vertex -0.847101 0.500000 -0.180057
    endloop
  endfacet
  facet normal -0.815127 0.579283 0.000000
    outer loop
      vertex -0.847101 0.500000 0.180057
      vertex -0.726905 0.669131 0.154508
      vertex -0.726905 0.669131 -0.154508
    endloop
  endfacet
  facet normal -0.744655 0.579283 -0.331542
    outer loop
      vertex -0.847101 0.500000 -0.180057
      vertex -0.601217 0.669131 -0.436810
      vertex -0.700629 0.500000 -0.509037
    endloop
  endfacet
  facet normal -0.744655 0.579283 -0.331542
    outer loop
      vertex -0.847101 0.500000 -0.180057
      vertex -0.726905 0.669131 -0.154508
      vertex -0.601217 0.669131 -0.436810
    endloop
  endfacet
  facet normal -0.545426 0.579283 -0.605757
    outer loop
      vertex -0.700629 0.500000 -0.509037
      vertex -0.371572 0.669131 -0.643582
      vertex -0.433013 0.500000 -0.750000
    endloop
  endfacet
  facet normal -0.545426 0.579283 -0.605757
    outer loop
      vertex -0.700629 0.500000 -0.509037
      vertex -0.601217 0.669131 -0.436810
      vertex -0.371572 0.669131 -0.643582
    endloop
  endfacet
  facet normal -0.251888 0.579283 -0.775232
    outer loop
      vertex -0.433013 0.500000 -0.750000
      vertex -0.077680 0.669131 -0.739074
      vertex -0.090524 0.500000 -0.861281
    endloop
  endfacet
  facet normal -0.251888 0.579283 -0.775232
    outer loop
      vertex -0.433013 0.500000 -0.750000
      vertex -0.371572 0.669131 -0.643582
      vertex -0.077680 0.669131 -0.739074
    endloop
  endfacet
  facet normal 0.085204 0.579283 -0.810661
    outer loop
      vertex -0.090524 0.500000 -0.861281
      vertex 0.229644 0.669131 -0.706773
      vertex 0.267617 0.500000 -0.823639
    endloop
  endfacet
  facet normal 0.085204 0.579283 -0.810661
    outer loop
      vertex -0.090524 0.500000 -0.861281
      vertex -0.077680 0.669131 -0.739074
      vertex 0.229644 0.669131 -0.706773
    endloop
  endfacet
  facet normal 0.407563 0.579283 -0.705920
    outer loop
      vertex 0.267617 0.500000 -0.823639
      vertex 0.497261 0.669131 -0.552264
      vertex 0.579484 0.500000 -0.643582
    endloop
  endfacet
  facet normal 0.407563 0.579283 -0.705920
    outer loop
      vertex 0.267617 0.500000 -0.823639
      vertex 0.229644 0.669131 -0.706773
      vertex 0.497261 0.669131 -0.552264
    endloop
  endfacet
  facet normal 0.659451 0.579283 -0.479119
    outer loop
      vertex 0.579484 0.500000 -0.643582
      vertex 0.678897 0.669131 -0.302264
      vertex 0.791154 0.500000 -0.352244
    endloop
  endfacet
  facet normal 0.659451 0.579283 -0.479119
    outer loop
      vertex 0.579484 0.500000 -0.643582
      vertex 0.497261 0.669131 -0.552264
      vertex 0.678897 0.669131 -0.302264
    endloop
  endfacet
  facet normal 0.797314 0.579283 -0.169474
    outer loop
      vertex 0.791154 0.500000 -0.352244
      vertex 0.743145 0.669131 -0.000000
      vertex 0.866025 0.500000 -0.000000
    endloop
  endfacet
  facet normal 0.797314 0.579283 -0.169474
    outer loop
      vertex 0.791154 0.500000 -0.352244
      vertex 0.678897 0.669131 -0.302264
      vertex 0.743145 0.669131 -0.000000
    endloop
  endfacet
  facet normal 0.662464 0.735740 0.140811
    outer loop
      vertex 0.743145 0.669131 0.000000
      vertex 0.536969 0.809017 0.239074
      vertex 0.678897 0.669131 0.302264
    endloop
  endfacet
  facet normal 0.662464 0.735740 0.140811
    outer loop
      vertex 0.743145 0.669131 0.000000
      vertex 0.587785 0.809017 0.000000
      vertex 0.536969 0.809017 0.239074
    endloop
  endfacet
  facet normal 0.547918 0.735740 0.398086
    outer loop
      vertex 0.678897 0.669131 0.302264
      vertex 0.393305 0.809017 0.436810
      vertex 0.497261 0.669131 0.552264
    endloop
  endfacet
  facet normal 0.547918 0.735740 0.398086
    outer loop
      vertex 0.678897 0.669131 0.302264
      vertex 0.536969 0.809017 0.239074
      vertex 0.393305 0.809017 0.436810
    endloop
  endfacet
  facet normal 0.338632 0.735740 0.586527
    outer loop
      vertex 0.497261 0.669131 0.552264
      vertex 0.181636 0.809017 0.559017
      vertex 0.229644 0.669131 0.706773
    endloop
  endfacet
  facet normal 0.338632 0.735740 0.586527
    outer loop
      vertex 0.497261 0.669131 0.552264
      vertex 0.393305 0.809017 0.436810
      vertex 0.181636 0.809017 0.559017
    endloop
  endfacet
  facet normal 0.070793 0.735740 0.673553
    outer loop
      vertex 0.229644 0.669131 0.706773
      vertex -0.061440 0.809017 0.584565
      vertex -0.077680 0.669131 0.739074
    endloop
  endfacet
  facet normal 0.070793 0.735740 0.673553
    outer loop
      vertex 0.229644 0.669131 0.706773
      vertex 0.181636 0.809017 0.559017
      vertex -0.061440 0.809017 0.584565
    endloop
  endfacet
  facet normal -0.209286 0.735740 0.644116
    outer loop
      vertex -0.077680 0.669131 0.739074
      vertex -0.293893 0.809017 0.509037
      vertex -0.371572 0.669131 0.643582
    endloop
  endfacet
  facet normal -0.209286 0.735740 0.644116
    outer loop
      vertex -0.077680 0.669131 0.739074
      vertex -0.061440 0.809017 0.584565
      vertex -0.293893 0.809017 0.509037
    endloop
  endfacet
  facet normal -0.453178 0.735740 0.503305
    outer loop
      vertex -0.371572 0.669131 0.643582
      vertex -0.475528 0.809017 0.345492
      vertex -0.601217 0.669131 0.436810
    endloop
  endfacet
  facet normal -0.453178 0.735740 0.503305
    outer loop
      vertex -0.371572 0.669131 0.643582
      vertex -0.293893 0.809017 0.509037
      vertex -0.475528 0.809017 0.345492
    endloop
  endfacet
  facet normal -0.618711 0.735740 0.275468
    outer loop
      vertex -0.601217 0.669131 0.436810
      vertex -0.574941 0.809017 0.122207
      vertex -0.726905 0.669131 0.154508
    endloop
  endfacet
  facet normal -0.618711 0.735740 0.275468
    outer loop
      vertex -0.601217 0.669131 0.436810
      vertex -0.475528 0.809017 0.345492
      vertex -0.574941 0.809017 0.122207
    endloop
  endfacet
  facet normal -0.677264 0.735740 0.000000
    outer loop
      vertex -0.726905 0.669131 0.154508
      vertex -0.574941 0.809017 -0.122207
      vertex -0.726905 0.669131 -0.154508
    endloop
  endfacet
  facet normal -0.677264 0.735740 0.000000
    outer loop
      vertex -0.726905 0.669131 0.154508
      vertex -0.574941 0.809017 0.122207
      vertex -0.574941 0.809017 -0.122207
    endloop
  endfacet
  facet normal -0.618711 0.735740 -0.275468
    outer loop
      vertex -0.726905 0.669131 -0.154508
      vertex -0.475528 0.809017 -0.345492
      vertex -0.601217 0.669131 -0.436810
    endloop
  endfacet
  facet normal -0.618711 0.735740 -0.275468
    outer loop
      vertex -0.726905 0.669131 -0.154508
      vertex -0.574941 0.809017 -0.122207
      vertex -0.475528 0.809017 -0.345492
    endloop
  endfacet
  facet normal -0.453178 0.735740 -0.503305
    outer loop
      vertex -0.601217 0.669131 -0.436810
      vertex -0.293893 0.809017 -0.509037
      vertex -0.371572 0.669131 -0.643582
    endloop
  endfacet
  facet normal -0.453178 0.735740 -0.503305
    outer loop
      vertex -0.601217 0.669131 -0.436810
      vertex -0.475528 0.809017 -0.345492
      vertex -0.293893 0.809017 -0.509037
    endloop
  endfacet
  facet normal -0.209286 0.735740 -0.644116
    outer loop
      vertex -0.371572 0.669131 -0.643582
      vertex -0.061440 0.809017 -0.584565
      vertex -0.077680 0.669131 -0.739074
    endloop
  endfacet
  facet normal -0.209286 0.735740 -0.644116
    outer loop
      vertex -0.371572 0.669131 -0.643582
      vertex -0.293893 0.809017 -0.509037
      vertex -0.061440 0.809017 -0.584565
    endloop
  endfacet
  facet normal 0.070793 0.735740 -0.673553
    outer loop
      vertex -0.077680 0.669131 -0.739074
      vertex 0.181636 0.809017 -0.559017
      vertex 0.229644 0.669131 -0.706773
    endloop
  endfacet
  facet normal 0.070793 0.735740 -0.673553
    outer loop
      vertex -0.077680 0.669131 -0.739074
      vertex -0.061440 0.809017 -0.584565
      vertex 0.181636 0.809017 -0.559017
    endloop
  endfacet
  facet normal 0.338632 0.735740 -0.586527
    outer loop
      vertex 0.229644 0.669131 -0.706773
      vertex 0.393305 0.809017 -0.436810
      vertex 0.497261 0.669131 -0.552264
    endloop
  endfacet
  facet normal 0.338632 0.735740 -0.586527
    outer loop
      vertex 0.229644 0.669131 -0.706773
      vertex 0.181636 0.809017 -0.559017
      vertex 0.393305 0.809017 -0.436810
    endloop
  endfacet
  facet normal 0.547918 0.735740 -0.398086
    outer loop
      vertex 0.497261 0.669131 -0.552264
      vertex 0.536969 0.809017 -0.239074
      vertex 0.678897 0.669131 -0.302264
    endloop
  endfacet
  facet normal 0.547918 0.735740 -0.398086
    outer loop
      vertex 0.497261 0.669131 -0.552264
      vertex 0.393305 0.809017 -0.436810
      vertex 0.536969 0.809017 -0.239074
    endloop
  endfacet
  facet normal 0.662464 0.735740 -0.140811
    outer loop
      vertex 0.678897 0.669131 -0.302264
      vertex 0.587785 0.809017 -0.000000
      vertex 0.743145 0.669131 -0.000000
    endloop
  endfacet
  facet normal 0.662464 0.735740 -0.140811
    outer loop
      vertex 0.678897 0.669131 -0.302264
      vertex 0.536969 0.809017 -0.239074
      vertex 0.587785 0.809017 -0.000000
    endloop
  endfacet
  facet normal 0.497200 0.861176 0.105683
    outer loop
      vertex 0.587785 0.809017 0.000000
      vertex 0.371572 0.913545 0.165435
      vertex 0.536969 0.809017 0.239074
    endloop
  endfacet
  facet normal 0.497200 0.861176 0.105683
    outer loop
      vertex 0.587785 0.809017 0.000000
      vertex 0.406737 0.913545 0.000000
      vertex 0.371572 0.913545 0.165435
    endloop
  endfacet
  facet normal 0.411230 0.861176 0.298776
    outer loop
      vertex 0.536969 0.809017 0.239074
      vertex 0.272160 0.913545 0.302264
      vertex 0.393305 0.809017 0.436810
    endloop
  endfacet
  facet normal 0.411230 0.861176 0.298776
    outer loop
      vertex 0.536969 0.809017 0.239074
      vertex 0.371572 0.913545 0.165435
      vertex 0.272160 0.913545 0.302264
    endloop
  endfacet
  facet normal 0.254154 0.861176 0.440207
    outer loop
      vertex 0.393305 0.809017 0.436810
      vertex 0.125689 0.913545 0.386830
      vertex 0.181636 0.809017 0.559017
    endloop
  endfacet
  facet normal 0.254154 0.861176 0.440207
    outer loop
      vertex 0.393305 0.809017 0.436810
      vertex 0.272160 0.913545 0.302264
      vertex 0.125689 0.913545 0.386830
    endloop
  endfacet
  facet normal 0.053133 0.861176 0.505523
    outer loop
      vertex 0.181636 0.809017 0.559017
      vertex -0.042516 0.913545 0.404508
      vertex -0.061440 0.809017 0.584565
    endloop
  endfacet
  facet normal 0.053133 0.861176 0.505523
    outer loop
      vertex 0.181636 0.809017 0.559017
      vertex 0.125689 0.913545 0.386830
      vertex -0.042516 0.913545 0.404508
    endloop
  endfacet
  facet normal -0.157076 0.861176 0.483429
    outer loop
      vertex -0.061440 0.809017 0.584565
      vertex -0.203368 0.913545 0.352244
      vertex -0.293893 0.809017 0.509037
    endloop
  endfacet
  facet normal -0.157076 0.861176 0.483429
    outer loop
      vertex -0.061440 0.809017 0.584565
      vertex -0.042516 0.913545 0.404508
      vertex -0.203368 0.913545 0.352244
    endloop
  endfacet
  facet normal -0.340124 0.861176 0.377746
    outer loop
      vertex -0.293893 0.809017 0.509037
      vertex -0.329057 0.913545 0.239074
      vertex -0.475528 0.809017 0.345492
    endloop
  endfacet
  facet normal -0.340124 0.861176 0.377746
    outer loop
      vertex -0.293893 0.809017 0.509037
      vertex -0.203368 0.913545 0.352244
      vertex -0.329057 0.913545 0.239074
    endloop
  endfacet
  facet normal -0.464362 0.861176 0.206747
    outer loop
      vertex -0.475528 0.809017 0.345492
      vertex -0.397848 0.913545 0.084565
      vertex -0.574941 0.809017 0.122207
    endloop
  endfacet
  facet normal -0.464362 0.861176 0.206747
    outer loop
      vertex -0.475528 0.809017 0.345492
      vertex -0.329057 0.913545 0.239074
      vertex -0.397848 0.913545 0.084565
    endloop
  endfacet
  facet normal -0.508308 0.861176 0.000000
    outer loop
      vertex -0.574941 0.809017 0.122207
      vertex -0.397848 0.913545 -0.084565
      vertex -0.574941 0.809017 -0.122207
    endloop
  endfacet
  facet normal -0.508308 0.861176 0.000000
    outer loop
      vertex -0.574941 0.809017 0.122207
      vertex -0.397848 0.913545 0.084565
      vertex -0.397848 0.913545 -0.084565
    endloop
  endfacet
  facet normal -0.464362 0.861176 -0.206747
    outer loop
      vertex -0.574941 0.809017 -0.122207
      vertex -0.329057 0.913545 -0.239074
      vertex -0.475528 0.809017 -0.345492
    endloop
  endfacet
  facet normal -0.464362 0.861176 -0.206747
    outer loop
      vertex -0.574941 0.809017 -0.122207
      vertex -0.397848 0.913545 -0.084565
      vertex -0.329057 0.913545 -0.239074
    endloop
  endfacet
  facet normal -0.340124 0.861176 -0.377746
    outer loop
      vertex -0.475528 0.809017 -0.345492
      vertex -0.203368 0.913545 -0.352244
      vertex -0.293893 0.809017 -0.509037
    endloop
  endfacet
  facet normal -0.340124 0.861176 -0.377746
    outer loop
      vertex -0.475528 0.809017 -0.345492
      vertex -0.329057 0.913545 -0.239074
      vertex -0.203368 0.913545 -0.352244
    endloop
  endfacet
  facet normal -0.157076 0.861176 -0.483429
    outer loop
      vertex -0.293893 0.809017 -0.509037
      vertex -0.042516 0.913545 -0.404508
      vertex -0.061440 0.809017 -0.584565
    endloop
  endfacet
  facet normal -0.157076 0.861176 -0.483429
    outer loop
      vertex -0.293893 0.809017 -0.509037
      vertex -0.203368 0.913545 -0.352244
      vertex -0.042516 0.913545 -0.404508
    endloop
  endfacet
  facet normal 0.053133 0.861176 -0.505523
    outer loop
      vertex -0.061440 0.809017 -0.584565
      vertex 0.125689 0.913545 -0.386830
      vertex 0.181636 0.809017 -0.559017
    endloop
  endfacet
  facet normal 0.053133 0.861176 -0.505523
    outer loop
      vertex -0.061440 0.809017 -0.584565
      vertex -0.042516 0.913545 -0.404508
      vertex 0.125689 0.913545 -0.386830
    endloop
  endfacet
  facet normal 0.254154 0.861176 -0.440207
    outer loop
      vertex 0.181636 0.809017 -0.559017
      vertex 0.272160 0.913545 -0.302264
      vertex 0.393305 0.809017 -0.436810
    endloop
  endfacet
  facet normal 0.254154 0.861176 -0.440207
    outer loop
      vertex 0.181636 0.809017 -0.559017
      vertex 0.125689 0.913545 -0.386830
      vertex 0.272160 0.913545 -0.302264
    endloop
  endfacet
  facet normal 0.411230 0.861176 -0.298776
    outer loop
      vertex 0.393305 0.809017 -0.436810
      vertex 0.371572 0.913545 -0.165435
      vertex 0.536969 0.809017 -0.239074
    endloop
  endfacet
  facet normal 0.411230 0.861176 -0.298776
    outer loop
      vertex 0.393305 0.809017 -0.436810
      vertex 0.272160 0.913545 -0.302264
      vertex 0.371572 0.913545 -0.165435
    endloop
  endfacet
  facet normal 0.497200 0.861176 -0.105683
    outer loop
      vertex 0.536969 0.809017 -0.239074
      vertex 0.406737 0.913545 -0.000000
      vertex 0.587785 0.809017 -0.000000
    endloop
  endfacet
  facet normal 0.497200 0.861176 -0.105683
    outer loop
      vertex 0.536969 0.809017 -0.239074
      vertex 0.371572 0.913545 -0.165435
      vertex 0.406737 0.913545 -0.000000
    endloop
  endfacet
  facet normal 0.308353 0.949012 0.065542
    outer loop
      vertex 0.406737 0.913545 0.000000
      vertex 0.189937 0.978148 0.084565
      vertex 0.371572 0.913545 0.165435
    endloop
  endfacet
  facet normal 0.308353 0.949012 0.065542
    outer loop
      vertex 0.406737 0.913545 0.000000
      vertex 0.207912 0.978148 0.000000
      vertex 0.189937 0.978148 0.084565
    endloop
  endfacet
  facet normal 0.255036 0.949012 0.185294
    outer loop
      vertex 0.371572 0.913545 0.165435
      vertex 0.139120 0.978148 0.154508
      vertex 0.272160 0.913545 0.302264
    endloop
  endfacet
  facet normal 0.255036 0.949012 0.185294
    outer loop
      vertex 0.371572 0.913545 0.165435
      vertex 0.189937 0.978148 0.084565
      vertex 0.139120 0.978148 0.154508
    endloop
  endfacet
  facet normal 0.157621 0.949012 0.273007
    outer loop
      vertex 0.272160 0.913545 0.302264
      vertex 0.064248 0.978148 0.197736
      vertex 0.125689 0.913545 0.386830
    endloop
  endfacet
  facet normal 0.157621 0.949012 0.273007
    outer loop
      vertex 0.272160 0.913545 0.302264
      vertex 0.139120 0.978148 0.154508
      vertex 0.064248 0.978148 0.197736
    endloop
  endfacet
  facet normal 0.032952 0.949012 0.313514
    outer loop
      vertex 0.125689 0.913545 0.386830
      vertex -0.021733 0.978148 0.206773
      vertex -0.042516 0.913545 0.404508
    endloop
  endfacet
  facet normal 0.032952 0.949012 0.313514
    outer loop
      vertex 0.125689 0.913545 0.386830
      vertex 0.064248 0.978148 0.197736
      vertex -0.021733 0.978148 0.206773
    endloop
  endfacet
  facet normal -0.097415 0.949012 0.299812
    outer loop
      vertex -0.042516 0.913545 0.404508
      vertex -0.103956 0.978148 0.180057
      vertex -0.203368 0.913545 0.352244
    endloop
  endfacet
  facet normal -0.097415 0.949012 0.299812
    outer loop
      vertex -0.042516 0.913545 0.404508
      vertex -0.021733 0.978148 0.206773
      vertex -0.103956 0.978148 0.180057
    endloop
  endfacet
  facet normal -0.210938 0.949012 0.234270
    outer loop
      vertex -0.203368 0.913545 0.352244
      vertex -0.168204 0.978148 0.122207
      vertex -0.329057 0.913545 0.239074
    endloop
  endfacet
  facet normal -0.210938 0.949012 0.234270
    outer loop
      vertex -0.203368 0.913545 0.352244
      vertex -0.103956 0.978148 0.180057
      vertex -0.168204 0.978148 0.122207
    endloop
  endfacet
  facet normal -0.287987 0.949012 0.128220
    outer loop
      vertex -0.329057 0.913545 0.239074
      vertex -0.203368 0.978148 0.043227
      vertex -0.397848 0.913545 0.084565
    endloop
  endfacet
  facet normal -0.287987 0.949012 0.128220
    outer loop
      vertex -0.329057 0.913545 0.239074
      vertex -0.168204 0.978148 0.122207
      vertex -0.203368 0.978148 0.043227
    endloop
  endfacet
  facet normal -0.315241 0.949012 0.000000
    outer loop
      vertex -0.397848 0.913545 0.084565
      vertex -0.203368 0.978148 -0.043227
      vertex -0.397848 0.913545 -0.084565
    endloop
  endfacet
  facet normal -0.315241 0.949012 0.000000
    outer loop
      vertex -0.397848 0.913545 0.084565
      vertex -0.203368 0.978148 0.043227
      vertex -0.203368 0.978148 -0.043227
    endloop
  endfacet
  facet normal -0.287987 0.949012 -0.128220
    outer loop
      vertex -0.397848 0.913545 -0.084565
      vertex -0.168204 0.978148 -0.122207
      vertex -0.329057 0.913545 -0.239074
    endloop
  endfacet
  facet normal -0.287987 0.949012 -0.128220
    outer loop
      vertex -0.397848 0.913545 -0.084565
      vertex -0.203368 0.978148 -0.043227
      vertex -0.168204 0.978148 -0.122207
    endloop
  endfacet
  facet normal -0.210938 0.949012 -0.234270
    outer loop
      vertex -0.329057 0.913545 -0.239074
      vertex -0.103956 0.978148 -0.180057
      vertex -0.203368 0.913545 -0.352244
    endloop
  endfacet
  facet normal -0.210938 0.949012 -0.234270
    outer loop
      vertex -0.329057 0.913545 -0.239074
      vertex -0.168204 0.978148 -0.122207
      vertex -0.103956 0.978148 -0.180057
    endloop
  endfacet
  facet normal -0.097415 0.949012 -0.299812
    outer loop
      vertex -0.203368 0.913545 -0.352244
      vertex -0.021733 0.978148 -0.206773
      vertex -0.042516 0.913545 -0.404508
    endloop
  endfacet
  facet normal -0.097415 0.949012 -0.299812
    outer loop
      vertex -0.203368 0.913545 -0.352244
      vertex -0.103956 0.978148 -0.180057
      vertex -0.021733 0.978148 -0.206773
    endloop
  endfacet
  facet normal 0.032952 0.949012 -0.313514
    outer loop
      vertex -0.042516 0.913545 -0.404508
      vertex 0.064248 0.978148 -0.197736
      vertex 0.125689 0.913545 -0.386830
    endloop
  endfacet
  facet normal 0.032952 0.949012 -0.313514
    outer loop
      vertex -0.042516 0.913545 -0.404508
      vertex -0.021733 0.978148 -0.206773
      vertex 0.064248 0.978148 -0.197736
    endloop
  endfacet
  facet normal 0.157621 0.949012 -0.273007
    outer loop
      vertex 0.125689 0.913545 -0.386830
      vertex 0.139120 0.978148 -0.154508
      vertex 0.272160 0.913545 -0.302264
    endloop
  endfacet
  facet normal 0.157621 0.949012 -0.273007
    outer loop
      vertex 0.125689 0.913545 -0.386830
      vertex 0.064248 0.978148 -0.197736
      vertex 0.139120 0.978148 -0.154508
    endloop
  endfacet
  facet normal 0.255036 0.949012 -0.185294
    outer loop
      vertex 0.272160 0.913545 -0.302264
      vertex 0.189937 0.978148 -0.084565
      vertex 0.371572 0.913545 -0.165435
    endloop
  endfacet
  facet normal 0.255036 0.949012 -0.185294
    outer loop
      vertex 0.272160 0.913545 -0.302264
      vertex 0.139120 0.978148 -0.154508
      vertex 0.189937 0.978148 -0.084565
    endloop
  endfacet
  facet normal 0.308353 0.949012 -0.065542
    outer loop
      vertex 0.371572 0.913545 -0.165435
      vertex 0.207912 0.978148 -0.000000
      vertex 0.406737 0.913545 -0.000000
    endloop
  endfacet
  facet normal 0.308353 0.949012 -0.065542
    outer loop
      vertex 0.371572 0.913545 -0.165435
      vertex 0.189937 0.978148 -0.084565
      vertex 0.207912 0.978148 -0.000000
    endloop
  endfacet
  facet normal 0.104503 0.994277 0.022213
    outer loop
      vertex 0.207912 0.978148 0.000000
      vertex 0.000000 1.000000 0.000000
      vertex 0.189937 0.978148 0.084565
    endloop
  endfacet
  facet normal 0.086433 0.994277 0.062797
    outer loop
      vertex 0.189937 0.978148 0.084565
      vertex 0.000000 1.000000 0.000000
      vertex 0.139120 0.978148 0.154508
    endloop
  endfacet
  facet normal 0.053419 0.994277 0.092524
    outer loop
      vertex 0.139120 0.978148 0.154508
      vertex 0.000000 1.000000 0.000000
      vertex 0.064248 0.978148 0.197736
    endloop
  endfacet
  facet normal 0.011168 0.994277 0.106252
    outer loop
      vertex 0.064248 0.978148 0.197736
      vertex -0.000000 1.000000 0.000000
      vertex -0.021733 0.978148 0.206773
    endloop
  endfacet
  facet normal -0.033015 0.994277 0.101608
    outer loop
      vertex -0.021733 0.978148 0.206773
      vertex -0.000000 1.000000 0.000000
      vertex -0.103956 0.978148 0.180057
    endloop
  endfacet
  facet normal -0.071488 0.994277 0.079396
    outer loop
      vertex -0.103956 0.978148 0.180057
      vertex -0.000000 1.000000 0.000000
      vertex -0.168204 0.978148 0.122207
    endloop
  endfacet
  facet normal -0.097601 0.994277 0.043455
    outer loop
      vertex -0.168204 0.978148 0.122207
      vertex -0.000000 1.000000 0.000000
      vertex -0.203368 0.978148 0.043227
    endloop
  endfacet
  facet normal -0.106837 0.994277 0.000000
    outer loop
      vertex -0.203368 0.978148 0.043227
      vertex -0.000000 1.000000 -0.000000
      vertex -0.203368 0.978148 -0.043227
    endloop
  endfacet
  facet normal -0.097601 0.994277 -0.043455
    outer loop
      vertex -0.203368 0.978148 -0.043227
      vertex -0.000000 1.000000 -0.000000
      vertex -0.168204 0.978148 -0.122207
    endloop
  endfacet
  facet normal -0.071488 0.994277 -0.079396
    outer loop
      vertex -0.168204 0.978148 -0.122207
      vertex -0.000000 1.000000 -0.000000
      vertex -0.103956 0.978148 -0.180057
    endloop
  endfacet
  facet normal -0.033015 0.994277 -0.101608
    outer loop
      vertex -0.103956 0.978148 -0.180057
      vertex -0.000000 1.000000 -0.000000
      vertex -0.021733 0.978148 -0.206773
    endloop
  endfacet
  facet normal 0.011168 0.994277 -0.106252
    outer loop
      vertex -0.021733 0.978148 -0.206773
      vertex 0.000000 1.000000 -0.000000
      vertex 0.064248 0.978148 -0.197736
    endloop
  endfacet
  facet normal 0.053419 0.994277 -0.092524
    outer loop
      vertex 0.064248 0.978148 -0.197736
      vertex 0.000000 1.000000 -0.000000
      vertex 0.139120 0.978148 -0.154508
    endloop
  endfacet
  facet normal 0.086433 0.994277 -0.062797
    outer loop
      vertex 0.139120 0.978148 -0.154508
      vertex 0.000000 1.000000 -0.000000
      vertex 0.189937 0.978148 -0.084565
    endloop
  endfacet
  facet normal 0.104503 0.994277 -0.022213
    outer loop
      vertex 0.189937 0.978148 -0.084565
      vertex 0.000000 1.000000 -0.000000
      vertex 0.207912 0.978148 -0.000000
    endloop
  endfacet
endsolid Object_01