solid Object_08
  facet normal 0.000000 0.894427 -0.447214
    outer loop
      vertex 0.000000 0.000000 1.000000
      vertex 1.000000 -1.000000 -1.000000
      vertex -1.000000 -1.000000 -1.000000
    endloop
  endfacet
  facet normal -0.894427 0.000000 -0.447214
    outer loop
      vertex 0.000000 0.000000 1.000000
      vertex 1.000000 1.000000 -1.000000
      vertex 1.000000 -1.000000 -1.000000
    endloop
  endfacet
  facet normal 0.000000 -0.894427 -0.447214
    outer loop
      vertex 0.000000 0.000000 1.000000
      vertex -1.000000 1.000000 -1.000000
      vertex 1.000000 1.000000 -1.000000
    endloop
  endfacet
  facet normal 0.894427 0.000000 -0.447214
    outer loop
      vertex 0.000000 0.000000 1.000000
      vertex -1.000000 -1.000000 -1.000000
      vertex -1.000000 1.000000 -1.000000
    endloop
  endfacet
  facet normal 0.000000 0.000000 1.000000
    outer loop
      vertex -1.000000 -1.000000 -1.000000
      vertex 1.000000 -1.000000 -1.000000
      vertex -1.000000 1.000000 -1.000000
    endloop
  endfacet
  facet normal 0.000000 -0.000000 1.000000
    outer loop
      vertex 1.000000 -1.000000 -1.000000
      vertex 1.000000 1.000000 -1.000000
      vertex -1.000000 1.000000 -1.000000
    endloop
  endfacet
  facet normal 0.000000 -0.894427 0.447214
    outer loop
      vertex 0.000000 0.000000 -1.000000
      vertex 1.000000 1.000000 1.000000
      vertex -1.000000 1.000000 1.000000
    endloop
  endfacet
  facet normal -0.894427 0.000000 0.447214
    outer loop
      vertex 0.000000 0.000000 -1.000000
      vertex 1.000000 -1.000000 1.000000
      vertex 1.000000 1.000000 1.000000
    endloop
  endfacet
  facet normal 0.000000 0.894427 0.447214
    outer loop
      vertex 0.000000 0.000000 -1.000000
      vertex -1.000000 -1.000000 1.000000
      vertex 1.000000 -1.000000 1.000000
    endloop
  endfacet
  facet normal 0.894427 0.000000 0.447214
    outer loop
      vertex 0.000000 0.000000 -1.000000
      vertex -1.000000 1.000000 1.000000
      vertex -1.000000 -1.000000 1.000000
    endloop
  endfacet
  facet normal 0.000000 0.000000 -1.000000
    outer loop
      vertex -1.000000 1.000000 1.000000
      vertex 1.000000 1.000000 1.000000
      vertex -1.000000 -1.000000 1.000000
    endloop
  endfacet
  facet normal 0.000000 -0.000000 -1.000000
    outer loop
      vertex 1.000000 1.000000 1.000000
      vertex 1.000000 -1.000000 1.000000
      vertex -1.000000 -1.000000 1.000000
    endloop
  endfacet
endsolid Object_08