solid Object_05
  facet normal -0.890977 -0.087754 -0.445488
    outer loop
      vertex 0.000000 0.000000 1.000000
      vertex 0.980785 0.195090 -1.000000
      vertex 1.000000 0.000000 -1.000000
    endloop
  endfacet
  facet normal 0.000000 0.000000 1.000000
    outer loop
      vertex 0.000000 0.000000 -1.000000
      vertex 1.000000 0.000000 -1.000000
      vertex 0.980785 0.195090 -1.000000
    endloop
  endfacet
  facet normal -0.856737 -0.259888 -0.445488
    outer loop
      vertex 0.000000 0.000000 1.000000
      vertex 0.923880 0.382683 -1.000000
      vertex 0.980785 0.195090 -1.000000
    endloop
  endfacet
  facet normal 0.000000 0.000000 1.000000
    outer loop
      vertex 0.000000 0.000000 -1.000000
      vertex 0.980785 0.195090 -1.000000
      vertex 0.923880 0.382683 -1.000000
    endloop
  endfacet
  facet normal -0.789573 -0.422036 -0.445488
    outer loop
      vertex 0.000000 0.000000 1.000000
      vertex 0.831470 0.555570 -1.000000
      vertex 0.923880 0.382683 -1.000000
    endloop
  endfacet
  facet normal 0.000000 0.000000 1.000000
    outer loop
      vertex 0.000000 0.000000 -1.000000
      vertex 0.923880 0.382683 -1.000000
      vertex 0.831470 0.555570 -1.000000
    endloop
  endfacet
  facet normal -0.692067 -0.567965 -0.445488
    outer loop
      vertex 0.000000 0.000000 1.000000
      vertex 0.707107 0.707107 -1.000000
      vertex 0.831470 0.555570 -1.000000
    endloop
  endfacet
  facet normal 0.000000 0.000000 1.000000
    outer loop
      vertex 0.000000 0.000000 -1.000000
      vertex 0.831470 0.555570 -1.000000
      vertex 0.707107 0.707107 -1.000000
    endloop
  endfacet
  facet normal -0.567965 -0.692067 -0.445488
    outer loop
      vertex 0.000000 0.000000 1.000000
      vertex 0.555570 0.831470 -1.000000
      vertex 0.707107 0.707107 -1.000000
    endloop
  endfacet
  facet normal 0.000000 0.000000 1.000000
    outer loop
      vertex 0.000000 0.000000 -1.000000
      vertex 0.707107 0.707107 -1.000000
      vertex 0.555570 0.831470 -1.000000
    endloop
  endfacet
  facet normal -0.422036 -0.789573 -0.445488
    outer loop
      vertex 0.000000 0.000000 1.000000
      vertex 0.382683 0.923880 -1.000000
      vertex 0.555570 0.831470 -1.000000
    endloop
  endfacet
  facet normal 0.000000 0.000000 1.000000
    outer loop
      vertex 0.000000 0.000000 -1.000000
      vertex 0.555570 0.831470 -1.000000
      vertex 0.382683 0.923880 -1.000000
    endloop
  endfacet
  facet normal -0.259888 -0.856737 -0.445488
    outer loop
      vertex 0.000000 0.000000 1.000000
      vertex 0.195090 0.980785 -1.000000
      vertex 0.382683 0.923880 -1.000000
    endloop
  endfacet
  facet normal 0.000000 0.000000 1.000000
    outer loop
      vertex 0.000000 0.000000 -1.000000
      vertex 0.382683 0.923880 -1.000000
      vertex 0.195090 0.980785 -1.000000
    endloop
  endfacet
  facet normal -0.087754 -0.890977 -0.445488
    outer loop
      vertex 0.000000 0.000000 1.000000
      vertex 0.000000 1.000000 -1.000000
      vertex 0.195090 0.980785 -1.000000
    endloop
  endfacet
  facet normal 0.000000 0.000000 1.000000
    outer loop
      vertex 0.000000 0.000000 -1.000000
      vertex 0.195090 0.980785 -1.000000
      vertex 0.000000 1.000000 -1.000000
    endloop
  endfacet
  facet normal 0.087754 -0.890977 -0.445488
    outer loop
      vertex 0.000000 0.000000 1.000000
      vertex -0.195090 0.980785 -1.000000
      vertex 0.000000 1.000000 -1.000000
    endloop
  endfacet
  facet normal 0.000000 -0.000000 1.000000
    outer loop
      vertex 0.000000 0.000000 -1.000000
      vertex 0.000000 1.000000 -1.000000
      vertex -0.195090 0.980785 -1.000000
    endloop
  endfacet
  facet normal 0.259888 -0.856737 -0.445488
    outer loop
      vertex 0.000000 0.000000 1.000000
      vertex -0.382683 0.923880 -1.000000
      vertex -0.195090 0.980785 -1.000000
    endloop
  endfacet
  facet normal 0.000000 0.000000 1.000000
    outer loop
      vertex 0.000000 0.000000 -1.000000
      vertex -0.195090 0.980785 -1.000000
      vertex -0.382683 0.923880 -1.000000
    endloop
  endfacet
  facet normal 0.422036 -0.789573 -0.445488
    outer loop
      vertex 0.000000 0.000000 1.000000
      vertex -0.555570 0.831470 -1.000000
      vertex -0.382683 0.923880 -1.000000
    endloop
  endfacet
  facet normal 0.000000 0.000000 1.000000
    outer loop
      vertex 0.000000 0.000000 -1.000000
      vertex -0.382683 0.923880 -1.000000
      vertex -0.555570 0.831470 -1.000000
    endloop
  endfacet
  facet normal 0.567965 -0.692067 -0.445488
    outer loop
      vertex 0.000000 0.000000 1.000000
      vertex -0.707107 0.707107 -1.000000
      vertex -0.555570 0.831470 -1.000000
    endloop
  endfacet
  facet normal 0.000000 0.000000 1.000000
    outer loop
      vertex 0.000000 0.000000 -1.000000
      vertex -0.555570 0.831470 -1.000000
      vertex -0.707107 0.707107 -1.000000
    endloop
  endfacet
  facet normal 0.692067 -0.567965 -0.445488
    outer loop
      vertex 0.000000 0.000000 1.000000
      vertex -0.831470 0.555570 -1.000000
      vertex -0.707107 0.707107 -1.000000
    endloop
  endfacet
  facet normal 0.000000 0.000000 1.000000
    outer loop
      vertex 0.000000 0.000000 -1.000000
      vertex -0.707107 0.707107 -1.000000
      vertex -0.831470 0.555570 -1.000000
    endloop
  endfacet
  facet normal 0.789573 -0.422036 -0.445488
    outer loop
      vertex 0.000000 0.000000 1.000000
      vertex -0.923880 0.382683 -1.000000
      vertex -0.831470 0.555570 -1.000000
    endloop
  endfacet
  facet normal 0.000000 0.000000 1.000000
    outer loop
      vertex 0.000000 0.000000 -1.000000
      vertex -0.831470 0.555570 -1.000000
      vertex -0.923880 0.382683 -1.000000
    endloop
  endfacet
  facet normal 0.856737 -0.259888 -0.445488
    outer loop
      vertex 0.000000 0.000000 1.000000
      vertex -0.980785 0.195090 -1.000000
      vertex -0.923880 0.382683 -1.000000
    endloop
  endfacet
  facet normal 0.000000 0.000000 1.000000
    outer loop
      vertex 0.000000 0.000000 -1.000000
      vertex -0.923880 0.382683 -1.000000
      vertex -0.980785 0.195090 -1.000000
    endloop
  endfacet
  facet normal 0.890977 -0.087754 -0.445488
    outer loop
      vertex 0.000000 0.000000 1.000000
      vertex -1.000000 0.000000 -1.000000
      vertex -0.980785 0.195090 -1.000000
    endloop
  endfacet
  facet normal 0.000000 0.000000 1.000000
    outer loop
      vertex 0.000000 0.000000 -1.000000
      vertex -0.980785 0.195090 -1.000000
      vertex -1.000000 0.000000 -1.000000
    endloop
  endfacet
  facet normal 0.890977 0.087754 -0.445488
    outer loop
      vertex 0.000000 0.000000 1.000000
      vertex -0.980785 -0.195090 -1.000000
      vertex -1.000000 0.000000 -1.000000
    endloop
  endfacet
  facet normal 0.000000 0.000000 1.000000
    outer loop
      vertex 0.000000 0.000000 -1.000000
      vertex -1.000000 0.000000 -1.000000
      vertex -0.980785 -0.195090 -1.000000
    endloop
  endfacet
  facet normal 0.856737 0.259888 -0.445488
    outer loop
      vertex 0.000000 0.000000 1.000000
      vertex -0.923880 -0.382683 -1.000000
      vertex -0.980785 -0.195090 -1.000000
    endloop
  endfacet
  facet normal 0.000000 0.000000 1.000000
    outer loop
      vertex 0.000000 0.000000 -1.000000
      vertex -0.980785 -0.195090 -1.000000
      vertex -0.923880 -0.382683 -1.000000
    endloop
  endfacet
  facet normal 0.789573 0.422036 -0.445488
    outer loop
      vertex 0.000000 0.000000 1.000000
      vertex -0.831470 -0.555570 -1.000000
      vertex -0.923880 -0.382683 -1.000000
    endloop
  endfacet
  facet normal 0.000000 0.000000 1.000000
    outer loop
      vertex 0.000000 0.000000 -1.000000
      vertex -0.923880 -0.382683 -1.000000
      vertex -0.831470 -0.555570 -1.000000
    endloop
  endfacet
  facet normal 0.692067 0.567965 -0.445488
    outer loop
      vertex 0.000000 0.000000 1.000000
      vertex -0.707107 -0.707107 -1.000000
      vertex -0.831470 -0.555570 -1.000000
    endloop
  endfacet
  facet normal 0.000000 0.000000 1.000000
    outer loop
      vertex 0.000000 0.000000 -1.000000
      vertex -0.831470 -0.555570 -1.000000
      vertex -0.707107 -0.707107 -1.000000
    endloop
  endfacet
  facet normal 0.567965 0.692067 -0.445488
    outer loop
      vertex 0.000000 0.000000 1.000000
      vertex -0.555570 -0.831470 -1.000000
      vertex -0.707107 -0.707107 -1.000000
    endloop
  endfacet
  facet normal 0.000000 0.000000 1.000000
    outer loop
      vertex 0.000000 0.000000 -1.000000
      vertex -0.707107 -0.707107 -1.000000
      vertex -0.555570 -0.831470 -1.000000
    endloop
  endfacet
  facet normal 0.422036 0.789573 -0.445488
    outer loop
      vertex 0.000000 0.000000 1.000000
      vertex -0.382683 -0.923880 -1.000000
      vertex -0.555570 -0.831470 -1.000000
    endloop
  endfacet
  facet normal 0.000000 0.000000 1.000000
    outer loop
      vertex 0.000000 0.000000 -1.000000
      vertex -0.555570 -0.831470 -1.000000
      vertex -0.382683 -0.923880 -1.000000
    endloop
  endfacet
  facet normal 0.259888 0.856737 -0.445488
    outer loop
      vertex 0.000000 0.000000 1.000000
      vertex -0.195090 -0.980785 -1.000000
      vertex -0.382683 -0.923880 -1.000000
    endloop
  endfacet
  facet normal 0.000000 0.000000 1.000000
    outer loop
      vertex 0.000000 0.000000 -1.000000
      vertex -0.382683 -0.923880 -1.000000
      vertex -0.195090 -0.980785 -1.000000
    endloop
  endfacet
  facet normal 0.087754 0.890977 -0.445488
    outer loop
      vertex 0.000000 0.000000 1.000000
      vertex -0.000000 -1.000000 -1.000000
      vertex -0.195090 -0.980785 -1.000000
    endloop
  endfacet
  facet normal 0.000000 0.000000 1.000000
    outer loop
      vertex 0.000000 0.000000 -1.000000
      vertex -0.195090 -0.980785 -1.000000
      vertex -0.000000 -1.000000 -1.000000
    endloop
  endfacet
  facet normal -0.087754 0.890977 -0.445488
    outer loop
      vertex 0.000000 0.000000 1.000000
      vertex 0.195090 -0.980785 -1.000000
      vertex -0.000000 -1.000000 -1.000000
    endloop
  endfacet
  facet normal 0.000000 0.000000 1.000000
    outer loop
      vertex 0.000000 0.000000 -1.000000
      vertex -0.000000 -1.000000 -1.000000
      vertex 0.195090 -0.980785 -1.000000
    endloop
  endfacet
  facet normal -0.259888 0.856737 -0.445488
    outer loop
      vertex 0.000000 0.000000 1.000000
      vertex 0.382683 -0.923880 -1.000000
      vertex 0.195090 -0.980785 -1.000000
    endloop
  endfacet
  facet normal 0.000000 0.000000 1.000000
    outer loop
      vertex 0.000000 0.000000 -1.000000
      vertex 0.195090 -0.980785 -1.000000
      vertex 0.382683 -0.923880 -1.000000
    endloop
  endfacet
  facet normal -0.422036 0.789573 -0.445488
    outer loop
      vertex 0.000000 0.000000 1.000000
      vertex 0.555570 -0.831470 -1.000000
      vertex 0.382683 -0.923880 -1.000000
    endloop
  endfacet
  facet normal 0.000000 0.000000 1.000000
    outer loop
      vertex 0.000000 0.000000 -1.000000
      vertex 0.382683 -0.923880 -1.000000
      vertex 0.555570 -0.831470 -1.000000
    endloop
  endfacet
  facet normal -0.567965 0.692067 -0.445488
    outer loop
      vertex 0.000000 0.000000 1.000000
      vertex 0.707107 -0.707107 -1.000000
      vertex 0.555570 -0.831470 -1.000000
    endloop
  endfacet
  facet normal 0.000000 0.000000 1.000000
    outer loop
      vertex 0.000000 0.000000 -1.000000
      vertex 0.555570 -0.831470 -1.000000
      vertex 0.707107 -0.707107 -1.000000
    endloop
  endfacet
  facet normal -0.692067 0.567965 -0.445488
    outer loop
      vertex 0.000000 0.000000 1.000000
      vertex 0.831470 -0.555570 -1.000000
      vertex 0.707107 -0.707107 -1.000000
    endloop
  endfacet
  facet normal 0.000000 0.000000 1.000000
    outer loop
      vertex 0.000000 0.000000 -1.000000
      vertex 0.707107 -0.707107 -1.000000
      vertex 0.831470 -0.555570 -1.000000
    endloop
  endfacet
  facet normal -0.789573 0.422036 -0.445488
    outer loop
      vertex 0.000000 0.000000 1.000000
      vertex 0.923880 -0.382683 -1.000000
      vertex 0.831470 -0.555570 -1.000000
    endloop
  endfacet
  facet normal 0.000000 0.000000 1.000000
    outer loop
      vertex 0.000000 0.000000 -1.000000
      vertex 0.831470 -0.555570 -1.000000
      vertex 0.923880 -0.382683 -1.000000
    endloop
  endfacet
  facet normal -0.856737 0.259888 -0.445488
    outer loop
      vertex 0.000000 0.000000 1.000000
      vertex 0.980785 -0.195090 -1.000000
      vertex 0.923880 -0.382683 -1.000000
    endloop
  endfacet
  facet normal 0.000000 0.000000 1.000000
    outer loop
      vertex 0.000000 0.000000 -1.000000
      vertex 0.923880 -0.382683 -1.000000
      vertex 0.980785 -0.195090 -1.000000
    endloop
  endfacet
  facet normal -0.890977 0.087754 -0.445488
    outer loop
      vertex 0.000000 0.000000 1.000000
      vertex 1.000000 0.000000 -1.000000
      vertex 0.980785 -0.195090 -1.000000
    endloop
  endfacet
  facet normal -0.000000 0.000000 1.000000
    outer loop
      vertex 0.000000 0.000000 -1.000000
      vertex 0.980785 -0.195090 -1.000000
      vertex 1.000000 0.000000 -1.000000
    endloop
  endfacet
endsolid Object_05